<svg width="565" height="450" viewBox="0 0 565 450" fill="none" xmlns="http://www.w3.org/2000/svg">
<g clip-path="url(#clip0_203_2)">
<path d="M239.345 431.631C241.411 431.76 242.553 429.194 240.99 427.698L240.834 427.08C240.855 427.03 240.875 426.981 240.896 426.931C242.985 421.949 250.066 421.984 252.137 426.973C253.976 431.401 256.317 435.837 256.893 440.519C257.151 442.586 257.035 444.691 256.577 446.719C260.885 437.309 263.152 427.033 263.152 416.699C263.152 414.102 263.01 411.506 262.719 408.916C262.48 406.797 262.151 404.691 261.724 402.605C259.418 391.328 254.426 380.587 247.224 371.616C243.762 369.723 240.875 366.765 239.131 363.219C238.505 361.94 238.014 360.564 237.781 359.163C238.175 359.215 239.267 353.214 238.97 352.846C239.519 352.013 240.501 351.599 241.101 350.786C244.083 346.742 248.192 347.448 250.337 352.943C254.92 355.256 254.964 359.091 252.152 362.78C250.363 365.127 250.118 368.302 248.548 370.815C248.71 371.021 248.878 371.222 249.039 371.428C252 375.226 254.561 379.308 256.72 383.597C256.11 378.831 257.011 373.089 258.547 369.387C260.295 365.17 263.571 361.618 266.457 357.972C269.923 353.593 277.03 355.504 277.641 361.056C277.647 361.109 277.653 361.163 277.658 361.217C277.23 361.459 276.81 361.716 276.4 361.987C274.06 363.534 274.869 367.161 277.641 367.589L277.704 367.598C277.548 369.142 277.284 370.673 276.896 372.178C280.598 386.493 272.606 391.707 261.195 391.942C260.943 392.071 260.697 392.2 260.445 392.323C261.602 395.578 262.525 398.917 263.21 402.302C263.823 405.292 264.25 408.315 264.489 411.351C264.786 415.181 264.76 419.03 264.437 422.854L264.456 422.718C265.277 418.507 267.563 414.574 270.883 411.848C275.829 407.785 282.816 406.289 288.151 403.024C290.72 401.452 294.011 403.483 293.562 406.461L293.541 406.603C292.746 406.926 291.971 407.301 291.222 407.721C290.793 407.962 290.373 408.219 289.963 408.491C287.624 410.038 288.432 413.664 291.204 414.092L291.267 414.102C291.312 414.108 291.351 414.115 291.396 414.121C290.033 417.357 288.135 420.361 285.758 422.951C283.443 435.448 273.502 436.633 262.868 432.994H262.861C261.698 438.058 260 443.005 257.817 447.72H239.796C239.732 447.52 239.674 447.314 239.616 447.113C241.282 447.217 242.961 447.12 244.602 446.816C243.265 445.176 241.928 443.522 240.591 441.882C240.559 441.849 240.533 441.817 240.507 441.785C239.829 440.945 239.144 440.112 238.466 439.272L238.466 439.271C238.423 436.694 238.733 434.124 239.345 431.631Z" fill="#F2F2F2"/>
<path d="M0 448.077C0 448.737 0.53003 449.267 1.19006 449.267H404.48C405.14 449.267 405.67 448.737 405.67 448.077C405.67 447.417 405.14 446.887 404.48 446.887H1.19006C0.53003 446.887 0 447.417 0 448.077Z" fill="#CCCCCC"/>
<path d="M544.742 449H338.191C327.315 449 318.467 440.151 318.467 429.275V19.7246C318.467 8.84863 327.315 0 338.191 0H544.742C555.618 0 564.467 8.84863 564.467 19.7246V429.275C564.467 440.151 555.618 449 544.742 449ZM338.191 2C328.402 2 320.467 9.93536 320.467 19.7241V429.275C320.467 439.064 328.402 447 338.191 447H544.742C554.531 447 562.467 439.064 562.467 429.275V150.705C562.467 68.5774 495.889 2 413.762 2H338.191Z" fill="#E6E6E6"/>
<path d="M377.135 202.117C390.39 202.117 401.135 191.372 401.135 178.117C401.135 164.862 390.39 154.117 377.135 154.117C363.88 154.117 353.135 164.862 353.135 178.117C353.135 191.372 363.88 202.117 377.135 202.117Z" fill="#E6E6E6"/>
<path d="M505.801 202.117C519.056 202.117 529.801 191.372 529.801 178.117C529.801 164.862 519.056 154.117 505.801 154.117C492.546 154.117 481.801 164.862 481.801 178.117C481.801 191.372 492.546 202.117 505.801 202.117Z" fill="#E6E6E6"/>
<path d="M441.469 202.117C454.724 202.117 465.469 191.372 465.469 178.117C465.469 164.862 454.724 154.117 441.469 154.117C428.214 154.117 417.469 164.862 417.469 178.117C417.469 191.372 428.214 202.117 441.469 202.117Z" fill="#E6E6E6"/>
<path d="M377.135 271.117C390.39 271.117 401.135 260.372 401.135 247.117C401.135 233.862 390.39 223.117 377.135 223.117C363.88 223.117 353.135 233.862 353.135 247.117C353.135 260.372 363.88 271.117 377.135 271.117Z" fill="#E6E6E6"/>
<path d="M505.801 271.117C519.056 271.117 529.801 260.372 529.801 247.117C529.801 233.862 519.056 223.117 505.801 223.117C492.546 223.117 481.801 233.862 481.801 247.117C481.801 260.372 492.546 271.117 505.801 271.117Z" fill="#E6E6E6"/>
<path d="M441.467 271.117C454.722 271.117 465.467 260.372 465.467 247.117C465.467 233.862 454.722 223.117 441.467 223.117C428.212 223.117 417.467 233.862 417.467 247.117C417.467 260.372 428.212 271.117 441.467 271.117Z" fill="#E6E6E6"/>
<path d="M377.135 340.117C390.39 340.117 401.135 329.372 401.135 316.117C401.135 302.862 390.39 292.117 377.135 292.117C363.88 292.117 353.135 302.862 353.135 316.117C353.135 329.372 363.88 340.117 377.135 340.117Z" fill="#E6E6E6"/>
<path d="M505.311 409C518.565 409 529.311 398.255 529.311 385C529.311 371.745 518.565 361 505.311 361C492.056 361 481.311 371.745 481.311 385C481.311 398.255 492.056 409 505.311 409Z" fill="#E6E6E6"/>
<path d="M409.811 409C441.015 409 466.311 398.255 466.311 385C466.311 371.745 441.015 361 409.811 361C378.606 361 353.311 371.745 353.311 385C353.311 398.255 378.606 409 409.811 409Z" fill="#E6E6E6"/>
<path d="M505.801 340.117C519.056 340.117 529.801 329.372 529.801 316.117C529.801 302.862 519.056 292.117 505.801 292.117C492.546 292.117 481.801 302.862 481.801 316.117C481.801 329.372 492.546 340.117 505.801 340.117Z" fill="#E6E6E6"/>
<path d="M441.467 340.117C454.722 340.117 465.467 329.372 465.467 316.117C465.467 302.862 454.722 292.117 441.467 292.117C428.212 292.117 417.467 302.862 417.467 316.117C417.467 329.372 428.212 340.117 441.467 340.117Z" fill="#F97825"/>
<path d="M446.184 28H216.651C209.845 28 204.311 33.5343 204.311 40.3403V124.66C204.311 131.466 209.845 137 216.651 137H446.184C452.99 137 458.525 131.466 458.525 124.66V40.3403C458.525 33.5343 452.99 28 446.184 28Z" fill="white"/>
<path d="M446.184 28H216.651C209.845 28 204.311 33.5343 204.311 40.3403V124.66C204.311 131.466 209.845 137 216.651 137H446.184C452.99 137 458.525 131.466 458.525 124.66V40.3403C458.525 33.5343 452.99 28 446.184 28ZM457.227 124.66C457.227 130.752 452.277 135.702 446.184 135.702H216.651C210.559 135.702 205.608 130.752 205.608 124.66V40.3403C205.608 34.248 210.559 29.2976 216.651 29.2976H446.184C452.277 29.2976 457.227 34.248 457.227 40.3403V124.66Z" fill="#3F3D56"/>
<path d="M433.418 79H229.418C227.485 79 225.918 80.567 225.918 82.5C225.918 84.433 227.485 86 229.418 86H433.418C435.351 86 436.918 84.433 436.918 82.5C436.918 80.567 435.351 79 433.418 79Z" fill="#1BB042"/>
<path d="M67.9507 180.421L65.9062 192.596L84.0369 236.7L93.7645 231.699L84.2965 190.427L82.9357 174.676L67.9507 180.421Z" fill="#A0616A"/>
<path d="M87.9652 111.929C87.9652 111.929 78.4726 107.33 71.1066 122.868C63.7407 138.405 64.6528 172.482 64.6528 172.482C64.6528 172.482 61.9707 175.036 63.6733 176.824C65.3759 178.612 66.9633 181.45 65.2264 184.721C64.311 186.445 62.1924 189.818 65.6618 190.776C69.1311 191.734 85.3597 187.207 85.3597 187.207C85.3597 187.207 91.428 184.489 87.9801 182.658C84.5321 180.827 89.3882 169.753 89.3882 169.753L93.4006 137.761L87.9652 111.929Z" fill="white"/>
<path d="M95.4178 253.55C99.228 252.38 100.719 246.229 98.7487 239.812C96.7782 233.395 92.0919 229.141 88.2818 230.311C84.4716 231.481 82.9803 237.632 84.9508 244.049C86.9214 250.466 91.6076 254.72 95.4178 253.55Z" fill="#A0616A"/>
<path d="M185.277 442.573L194.364 440.134L189.282 403.926L175.871 407.525L185.277 442.573Z" fill="#A0616A"/>
<path d="M216.353 434.012C216.764 434.413 217.326 435.911 217.475 436.465C217.932 438.168 216.922 439.919 215.218 440.376L187.079 447.927C185.917 448.239 184.722 447.55 184.41 446.388L184.096 445.216C184.096 445.216 181.759 442.069 183.46 436.96C183.46 436.96 187.934 439.402 191.829 432.651L192.635 429.387L206.227 434.647L212.732 433.733C214.155 433.533 215.324 433.009 216.353 434.012Z" fill="#2F2E41"/>
<path d="M96.2089 442.363L105.617 442.362L110.092 406.074L96.207 406.075L96.2089 442.363Z" fill="#A0616A"/>
<path d="M128.442 442.15C128.735 442.643 128.89 444.235 128.89 444.809C128.89 446.572 127.46 448.002 125.697 448.002H96.5615C95.3584 448.002 94.3832 447.027 94.3832 445.824V444.611C94.3832 444.611 92.9419 440.965 95.9093 436.472C95.9093 436.472 99.5973 439.99 105.108 434.479L106.733 431.535L118.497 440.138L125.017 440.941C126.444 441.117 127.708 440.914 128.442 442.15Z" fill="#2F2E41"/>
<path d="M158.821 226.207L183.56 332.839L195.503 418.998L176.736 421.557L124.699 274.831L112.756 421.557L91.4299 423.263C91.4299 423.263 74.3688 249.24 82.0463 227.913L158.821 226.207Z" fill="#2F2E41"/>
<path d="M188.267 100.118L196.803 91.1992L206.605 44.5325L195.749 43.1992L180.375 82.6539L172.645 96.4448L188.267 100.118Z" fill="#A0616A"/>
<path d="M133.209 145.506C133.209 145.506 141.197 160.235 156.024 151.527C170.851 142.82 186.532 108.536 186.532 108.536C186.532 108.536 189.663 99.8204 192.939 98.0918C194.665 97.1807 199.107 96.1982 196.777 93.4553C194.446 90.7124 177.687 84.716 177.687 84.716C177.687 84.716 171.14 83.5524 172.962 87.005C174.784 90.4575 168.8 88.3188 169.404 91.9727C170.008 95.6267 164.542 96.8859 164.542 96.8859L133.209 145.506Z" fill="white"/>
<path d="M209.982 37.9392C211.96 31.5244 210.476 25.372 206.668 24.1975C202.859 23.0229 198.167 27.271 196.189 33.6858C194.211 40.1006 195.695 46.2529 199.504 47.4275C203.313 48.6021 208.004 44.354 209.982 37.9392Z" fill="#A0616A"/>
<path d="M134.269 94.4766H110.913L109.968 101.841C109.968 101.841 80.5115 109.941 81.248 114.36C81.9844 118.778 86.4028 192.419 86.4028 192.419L82.7208 229.239C82.7208 229.239 148.998 257.223 159.307 224.085L154.152 185.791C154.152 185.791 166.671 120.251 163.726 117.305C160.78 114.36 136.479 102.577 136.479 102.577L134.269 94.4766Z" fill="white"/>
<path d="M120.702 94.5686C132.28 94.5686 141.666 85.1827 141.666 73.6046C141.666 62.0265 132.28 52.6406 120.702 52.6406C109.124 52.6406 99.7383 62.0265 99.7383 73.6046C99.7383 85.1827 109.124 94.5686 120.702 94.5686Z" fill="#A0616A"/>
<path d="M136.229 64.979C138.907 64.7525 141.586 64.526 144.264 64.2997C143.344 63.8773 142.385 63.4254 141.771 62.6192C141.158 61.8132 141.031 60.5396 141.772 59.849C142.638 59.042 144.072 59.4695 145.019 60.1804C144.497 57.4595 142.873 54.9665 140.595 53.3904C137.812 51.4651 130.927 53.7608 127.572 53.3188C123.701 52.8088 123.217 49.5083 119.346 48.9983C117.887 48.8061 116.245 48.6611 115.098 49.5829C113.825 50.6052 113.682 52.5381 112.559 53.723C110.956 55.4147 108.209 54.9156 105.927 55.3916C102.696 56.0659 100.26 58.8992 99.1351 62.0025C98.0101 65.1058 97.9687 68.4811 97.9399 71.7821C97.9079 75.4813 97.8962 79.7639 100.572 82.3189C102.202 83.8754 106.642 89.216 107.122 91.4183C107.463 92.9823 121.356 94.8872 124.367 94.8005L134.63 91.4183C135.638 86.9769 133.97 78.1909 131.572 74.3189C132.362 75.3619 136.014 78.5021 136.572 77.3189C137.13 76.1356 136.877 72.4272 137.572 71.3189C138.449 69.92 134.584 65.118 136.229 64.979Z" fill="#2F2E41"/>
</g>
<defs>
<clipPath id="clip0_203_2">
<rect width="564.468" height="449.265" fill="white"/>
</clipPath>
</defs>
</svg>
