<svg width="802" height="537" viewBox="0 0 802 537" fill="none" xmlns="http://www.w3.org/2000/svg">
<g clip-path="url(#clip0_219_2)">
<path d="M658.25 321.503C658.781 321.345 659.323 321.229 659.871 321.156L681.77 276.66L675.084 266.637L688.892 254.57L706.249 275.81L670.898 327.258C671.768 329.204 672.025 331.369 671.634 333.464C671.244 335.559 670.225 337.486 668.713 338.988C667.201 340.49 665.267 341.496 663.169 341.872C661.072 342.249 658.909 341.977 656.969 341.095C655.029 340.212 653.404 338.76 652.31 336.931C651.215 335.102 650.704 332.983 650.843 330.856C650.982 328.73 651.765 326.696 653.088 325.025C654.412 323.354 656.212 322.126 658.25 321.503Z" fill="#A0616A"/>
<path d="M695.633 260.717C695.334 261.032 694.992 261.301 694.616 261.518L672.211 274.507C671.672 274.819 671.075 275.016 670.456 275.086C669.838 275.155 669.211 275.096 668.617 274.911C668.022 274.726 667.473 274.42 667.003 274.011C666.533 273.603 666.153 273.102 665.887 272.539L654.989 249.517C654.526 248.548 654.426 247.444 654.708 246.408C654.99 245.372 655.636 244.471 656.527 243.871L670.416 234.423C671.283 233.834 672.329 233.565 673.373 233.665C674.417 233.764 675.393 234.225 676.134 234.967L695.547 254.448C696.373 255.278 696.843 256.395 696.859 257.566C696.875 258.736 696.435 259.866 695.633 260.717Z" fill="#CCCCCC"/>
<path d="M727.092 515.688L715.262 518.907L697.217 474.81L714.677 470.059L727.092 515.688Z" fill="#A0616A"/>
<path d="M705.892 517.826L728.706 511.619L732.615 525.983L695.436 536.099C694.922 534.213 694.786 532.244 695.033 530.304C695.281 528.365 695.908 526.494 696.879 524.797C697.85 523.1 699.146 521.611 700.692 520.415C702.239 519.219 704.006 518.339 705.892 517.826Z" fill="#2F2E41"/>
<path d="M625.961 524.715L613.702 524.714L607.869 477.426L625.963 477.427L625.961 524.715Z" fill="#A0616A"/>
<path d="M604.943 521.211H628.587V536.098H590.057C590.057 534.143 590.442 532.207 591.19 530.401C591.938 528.595 593.034 526.954 594.417 525.571C595.799 524.189 597.44 523.092 599.247 522.344C601.053 521.596 602.989 521.211 604.943 521.211Z" fill="#2F2E41"/>
<path d="M638.877 218.728C652.442 218.728 663.438 207.731 663.438 194.166C663.438 180.602 652.442 169.605 638.877 169.605C625.313 169.605 614.316 180.602 614.316 194.166C614.316 207.731 625.313 218.728 638.877 218.728Z" fill="#A0616A"/>
<path d="M625.212 491H608.458C607.313 490.998 606.211 490.561 605.376 489.776C604.541 488.992 604.036 487.92 603.962 486.777C598.97 407.416 601.89 350.488 613.152 307.624C613.201 307.437 613.262 307.252 613.334 307.072L614.232 304.829C614.563 303.992 615.139 303.275 615.884 302.77C616.63 302.265 617.51 301.997 618.41 302H652.862C653.511 302 654.153 302.14 654.743 302.411C655.332 302.682 655.857 303.078 656.279 303.571L660.958 309.031C661.049 309.138 661.135 309.246 661.217 309.36C682.318 338.786 701.228 396.315 723.129 473.639C723.453 474.762 723.325 475.968 722.772 476.999C722.219 478.029 721.286 478.803 720.171 479.155L702.166 484.917C701.132 485.242 700.016 485.186 699.021 484.758C698.025 484.33 697.216 483.559 696.741 482.585L650.018 385.678C649.692 385.001 649.156 384.446 648.489 384.098C647.823 383.749 647.063 383.624 646.32 383.741C645.577 383.859 644.892 384.212 644.366 384.749C643.839 385.286 643.5 385.979 643.398 386.724L629.67 487.109C629.519 488.186 628.986 489.172 628.167 489.886C627.348 490.601 626.298 490.996 625.212 491Z" fill="#2F2E41"/>
<path d="M659.069 309.43C659.022 309.43 658.975 309.429 658.928 309.428L617.079 308.107C616.003 308.077 614.974 307.661 614.18 306.935C613.385 306.209 612.878 305.222 612.751 304.153C607.446 261.212 621.995 249.708 628.496 246.755C629.04 246.51 629.51 246.129 629.863 245.648C630.215 245.168 630.438 244.604 630.508 244.012L631.071 239.511C631.167 238.716 631.474 237.962 631.96 237.326C642.154 224.121 656.073 219.892 663.463 218.547C664.062 218.44 664.677 218.455 665.27 218.592C665.864 218.729 666.423 218.986 666.914 219.346C667.405 219.706 667.818 220.162 668.127 220.687C668.437 221.211 668.636 221.793 668.714 222.397L669.557 228.86C669.643 229.476 669.889 230.06 670.27 230.551C691.529 258.343 667.846 299.378 662.882 307.322C662.476 307.967 661.914 308.499 661.247 308.867C660.58 309.236 659.831 309.43 659.069 309.43Z" fill="#CCCCCC"/>
<path d="M688.432 196.929C682.953 189.214 676.382 182.336 668.926 176.509C662.728 171.667 655.829 167.531 648.217 165.552C640.605 163.574 632.198 163.911 625.254 167.602C618.308 171.293 611.128 178.626 611.084 186.491C611.071 189.018 611.713 192.436 614.201 191.999L614.921 192.094C620.924 190.882 626.926 189.67 632.928 188.457C635.485 197.329 638.041 206.201 640.597 215.073C641.136 216.943 641.859 219.034 643.634 219.831C645.306 220.582 647.239 219.875 648.93 219.168C649.208 219.052 651.598 213.687 651.598 213.687C651.658 213.519 651.762 213.37 651.898 213.256C652.035 213.142 652.199 213.066 652.375 213.037C652.551 213.007 652.731 213.025 652.897 213.089C653.063 213.153 653.21 213.259 653.321 213.398L654.741 215.173C655.012 215.512 655.386 215.754 655.807 215.861C656.228 215.969 656.672 215.936 657.073 215.769C666.861 211.683 676.65 207.597 686.439 203.511C687.791 202.946 689.303 202.208 689.696 200.796C690.072 199.443 689.244 198.074 688.432 196.929Z" fill="#2F2E41"/>
<path d="M800.953 537H499.953C499.688 537 499.434 536.895 499.246 536.707C499.058 536.52 498.953 536.265 498.953 536C498.953 535.735 499.058 535.48 499.246 535.293C499.434 535.105 499.688 535 499.953 535H800.953C801.218 535 801.473 535.105 801.66 535.293C801.848 535.48 801.953 535.735 801.953 536C801.953 536.265 801.848 536.52 801.66 536.707C801.473 536.895 801.218 537 800.953 537Z" fill="#3F3D56"/>
<path d="M637.769 381.164C637.089 381.161 636.427 380.942 635.88 380.538L631.328 377.231C630.95 376.955 630.495 376.807 630.027 376.807C629.559 376.807 629.104 376.955 628.726 377.231L624.174 380.538C623.625 380.937 622.964 381.152 622.285 381.152C621.607 381.152 620.946 380.937 620.397 380.538C619.848 380.139 619.439 379.577 619.229 378.932C619.019 378.286 619.019 377.591 619.229 376.946L620.968 371.595C621.113 371.15 621.114 370.671 620.969 370.226C620.825 369.782 620.543 369.394 620.164 369.12L615.612 365.812C615.063 365.414 614.654 364.851 614.444 364.206C614.235 363.56 614.235 362.865 614.444 362.22C614.654 361.574 615.063 361.012 615.612 360.613C616.161 360.214 616.822 360 617.5 360H623.127C623.595 360 624.05 359.853 624.429 359.578C624.807 359.303 625.088 358.915 625.232 358.47L626.971 353.119C627.18 352.474 627.589 351.911 628.138 351.512C628.687 351.113 629.348 350.898 630.027 350.898C630.706 350.898 631.367 351.113 631.916 351.512C632.465 351.911 632.873 352.474 633.083 353.119L634.822 358.47C634.965 358.915 635.247 359.303 635.625 359.578C636.003 359.853 636.459 360 636.927 360H642.553C643.232 360 643.893 360.214 644.442 360.613C644.991 361.012 645.4 361.574 645.609 362.22C645.819 362.865 645.819 363.56 645.609 364.206C645.4 364.851 644.991 365.414 644.442 365.812L639.89 369.12C639.511 369.394 639.229 369.781 639.085 370.226C638.94 370.671 638.941 371.15 639.086 371.595L640.825 376.946C641.042 377.591 641.046 378.288 640.836 378.935C640.625 379.582 640.212 380.144 639.657 380.538C639.11 380.942 638.449 381.161 637.769 381.164Z" fill="#1BB042"/>
<path d="M655.165 370.467C656.451 369.566 657.524 368.393 658.307 367.032C659.091 365.671 659.566 364.154 659.7 362.59C659.834 361.025 659.624 359.45 659.083 357.975C658.543 356.501 657.686 355.162 656.572 354.055L664.345 260.184L641.201 263.367L640.761 354.572C639.024 356.566 638.08 359.128 638.106 361.772C638.132 364.416 639.127 366.959 640.903 368.918C642.678 370.877 645.111 372.117 647.74 372.403C650.368 372.688 653.011 372 655.165 370.467Z" fill="#A0616A"/>
<path d="M665.857 273.699C665.423 273.699 664.992 273.637 664.576 273.514L639.73 266.206C639.133 266.031 638.579 265.733 638.102 265.332C637.626 264.932 637.238 264.436 636.963 263.878C636.688 263.319 636.532 262.71 636.504 262.088C636.477 261.466 636.579 260.845 636.804 260.265L645.998 236.511C646.382 235.508 647.113 234.676 648.059 234.167C649.005 233.658 650.103 233.506 651.151 233.739L667.566 237.308C668.59 237.531 669.505 238.105 670.152 238.93C670.798 239.756 671.137 240.781 671.108 241.829L670.344 269.321C670.312 270.491 669.825 271.602 668.987 272.419C668.15 273.237 667.027 273.696 665.857 273.699Z" fill="#CCCCCC"/>
<path d="M432 391H7C5.14412 390.998 3.36485 390.26 2.05255 388.947C0.740248 387.635 0.00208302 385.856 0 384V257C0.00208302 255.144 0.740248 253.365 2.05255 252.053C3.36485 250.74 5.14412 250.002 7 250H432C433.856 250.002 435.635 250.74 436.948 252.053C438.26 253.365 438.998 255.144 439 257V384C438.998 385.856 438.26 387.635 436.948 388.947C435.635 390.26 433.856 390.998 432 391ZM7 252C5.67439 252.002 4.40352 252.529 3.46617 253.466C2.52882 254.404 2.00154 255.674 2 257V384C2.00154 385.326 2.52882 386.596 3.46617 387.534C4.40352 388.471 5.67439 388.998 7 389H432C433.326 388.998 434.597 388.471 435.534 387.534C436.471 386.597 436.999 385.326 437 384V257C436.999 255.674 436.471 254.403 435.534 253.466C434.597 252.529 433.326 252.002 432 252H7Z" fill="#3F3D56"/>
<path d="M192.975 444.475C192.142 444.471 191.332 444.203 190.661 443.708L185.085 439.657C184.622 439.319 184.064 439.137 183.491 439.137C182.918 439.137 182.36 439.319 181.897 439.657L176.321 443.708C175.648 444.197 174.839 444.46 174.007 444.46C173.176 444.46 172.366 444.197 171.693 443.709C171.021 443.22 170.52 442.531 170.263 441.741C170.006 440.95 170.006 440.098 170.263 439.308L172.393 432.752C172.571 432.208 172.572 431.621 172.395 431.076C172.218 430.531 171.872 430.056 171.408 429.72L165.832 425.669C165.159 425.18 164.659 424.491 164.402 423.701C164.145 422.91 164.145 422.058 164.402 421.268C164.659 420.477 165.159 419.788 165.832 419.299C166.504 418.811 167.314 418.548 168.145 418.548H175.038C175.611 418.549 176.17 418.368 176.633 418.031C177.097 417.694 177.441 417.219 177.617 416.674L179.747 410.119C180.004 409.328 180.504 408.639 181.177 408.15C181.85 407.662 182.66 407.398 183.491 407.398C184.322 407.398 185.132 407.662 185.805 408.15C186.478 408.639 186.978 409.328 187.235 410.119L189.365 416.674C189.541 417.219 189.886 417.694 190.349 418.031C190.812 418.368 191.371 418.549 191.944 418.548H198.837C199.668 418.548 200.478 418.811 201.15 419.3C201.823 419.788 202.323 420.477 202.58 421.268C202.837 422.058 202.837 422.91 202.58 423.701C202.323 424.491 201.823 425.18 201.15 425.669L195.574 429.72C195.11 430.056 194.764 430.531 194.587 431.076C194.41 431.621 194.411 432.208 194.589 432.752L196.719 439.308C196.985 440.098 196.99 440.952 196.732 441.745C196.475 442.538 195.969 443.226 195.289 443.708C194.619 444.203 193.808 444.471 192.975 444.475Z" fill="#1BB042"/>
<path d="M249.483 444.475C248.65 444.471 247.839 444.203 247.169 443.708L241.592 439.657C241.13 439.319 240.572 439.137 239.999 439.137C239.426 439.137 238.868 439.319 238.405 439.657L232.829 443.708C232.156 444.197 231.346 444.46 230.515 444.46C229.683 444.46 228.874 444.197 228.201 443.709C227.528 443.22 227.028 442.531 226.771 441.741C226.514 440.95 226.514 440.098 226.771 439.308L228.901 432.752C229.079 432.208 229.079 431.621 228.902 431.076C228.725 430.531 228.38 430.056 227.916 429.72L222.339 425.669C221.667 425.18 221.166 424.491 220.909 423.701C220.653 422.91 220.653 422.058 220.909 421.268C221.166 420.477 221.667 419.788 222.34 419.3C223.012 418.811 223.822 418.548 224.653 418.548H231.546C232.119 418.549 232.677 418.368 233.141 418.031C233.604 417.694 233.949 417.219 234.125 416.674L236.255 410.119C236.512 409.328 237.012 408.639 237.685 408.15C238.357 407.662 239.167 407.398 239.999 407.398C240.83 407.398 241.64 407.662 242.313 408.15C242.985 408.639 243.486 409.328 243.743 410.119L245.872 416.674C246.049 417.219 246.393 417.694 246.857 418.031C247.32 418.368 247.879 418.549 248.451 418.548H255.344C256.175 418.548 256.985 418.811 257.658 419.3C258.33 419.788 258.831 420.477 259.088 421.268C259.345 422.058 259.345 422.91 259.088 423.701C258.831 424.491 258.331 425.18 257.658 425.669L252.082 429.72C251.617 430.056 251.272 430.531 251.095 431.076C250.918 431.621 250.918 432.208 251.097 432.752L253.227 439.308C253.493 440.098 253.498 440.952 253.24 441.745C252.982 442.538 252.476 443.226 251.796 443.708C251.126 444.203 250.316 444.471 249.483 444.475Z" fill="#1BB042"/>
<path d="M305.992 444.475C305.159 444.471 304.349 444.203 303.679 443.708L298.102 439.657C297.639 439.32 297.081 439.138 296.508 439.138C295.936 439.138 295.378 439.32 294.915 439.657L289.338 443.708C288.666 444.197 287.856 444.46 287.025 444.46C286.193 444.46 285.383 444.197 284.711 443.709C284.038 443.22 283.538 442.531 283.281 441.741C283.024 440.95 283.024 440.098 283.281 439.308L285.41 432.752C285.588 432.208 285.589 431.621 285.412 431.076C285.235 430.531 284.89 430.056 284.425 429.72L278.849 425.669C278.177 425.18 277.676 424.491 277.419 423.701C277.162 422.91 277.162 422.058 277.419 421.268C277.676 420.477 278.177 419.788 278.849 419.3C279.522 418.811 280.332 418.548 281.163 418.548H288.056C288.629 418.549 289.187 418.368 289.65 418.031C290.114 417.694 290.458 417.219 290.634 416.674L292.765 410.119C293.021 409.328 293.522 408.639 294.194 408.15C294.867 407.662 295.677 407.398 296.508 407.398C297.34 407.398 298.15 407.662 298.822 408.15C299.495 408.639 299.996 409.328 300.252 410.119L302.382 416.674C302.559 417.219 302.903 417.694 303.367 418.031C303.83 418.368 304.388 418.549 304.961 418.548H311.854C312.685 418.548 313.495 418.811 314.168 419.3C314.84 419.788 315.341 420.477 315.598 421.268C315.855 422.058 315.855 422.91 315.598 423.701C315.341 424.491 314.84 425.18 314.168 425.669L308.591 429.72C308.127 430.056 307.782 430.531 307.605 431.076C307.428 431.621 307.429 432.208 307.607 432.752L309.736 439.308C310.003 440.098 310.007 440.952 309.75 441.745C309.492 442.537 308.986 443.226 308.306 443.708C307.636 444.203 306.826 444.471 305.992 444.475Z" fill="#1BB042"/>
<path d="M362.501 444.475C361.668 444.471 360.857 444.203 360.187 443.708L354.61 439.657C354.148 439.319 353.589 439.137 353.017 439.137C352.444 439.137 351.886 439.319 351.423 439.657L345.846 443.708C345.174 444.197 344.364 444.46 343.533 444.46C342.701 444.46 341.891 444.197 341.219 443.709C340.546 443.22 340.046 442.531 339.789 441.741C339.532 440.95 339.532 440.098 339.788 439.308L341.918 432.752C342.097 432.208 342.097 431.621 341.92 431.076C341.743 430.531 341.398 430.057 340.933 429.721L335.357 425.669C334.684 425.18 334.184 424.491 333.927 423.701C333.67 422.91 333.67 422.058 333.927 421.268C334.184 420.477 334.685 419.788 335.357 419.299C336.03 418.811 336.84 418.548 337.671 418.548H344.564C345.136 418.549 345.695 418.368 346.158 418.031C346.622 417.694 346.966 417.219 347.143 416.674L349.272 410.119C349.529 409.328 350.03 408.639 350.702 408.15C351.375 407.662 352.185 407.398 353.016 407.398C353.848 407.398 354.658 407.662 355.33 408.15C356.003 408.639 356.503 409.328 356.76 410.119L358.89 416.674C359.066 417.219 359.411 417.694 359.874 418.031C360.338 418.368 360.896 418.549 361.469 418.548H368.362C369.193 418.548 370.003 418.811 370.676 419.299C371.348 419.788 371.849 420.477 372.105 421.268C372.362 422.058 372.362 422.91 372.106 423.701C371.849 424.491 371.348 425.18 370.676 425.669L365.099 429.72C364.635 430.056 364.29 430.531 364.113 431.076C363.936 431.621 363.936 432.208 364.114 432.752L366.244 439.308C366.511 440.098 366.515 440.952 366.258 441.745C366 442.537 365.494 443.226 364.814 443.708C364.144 444.203 363.334 444.471 362.501 444.475Z" fill="#1BB042"/>
<path d="M400.041 444.864C399.126 444.86 398.236 444.566 397.5 444.023C396.753 443.493 396.197 442.736 395.914 441.866C395.631 440.995 395.636 440.056 395.929 439.188L398.059 432.633C398.211 432.166 398.212 431.663 398.06 431.196C397.908 430.729 397.612 430.323 397.215 430.035L391.638 425.983C390.899 425.446 390.349 424.689 390.067 423.821C389.785 422.952 389.785 422.017 390.067 421.148C390.349 420.28 390.899 419.523 391.638 418.986C392.377 418.45 393.267 418.161 394.18 418.161H401.073C401.564 418.162 402.042 418.007 402.439 417.718C402.837 417.429 403.132 417.022 403.283 416.555L405.413 410C405.695 409.131 406.245 408.374 406.984 407.838C407.723 407.301 408.612 407.012 409.525 407.012C410.439 407.012 411.328 407.301 412.067 407.838C412.806 408.374 413.356 409.131 413.638 410L415.768 416.555C415.919 417.022 416.214 417.429 416.611 417.718C417.008 418.007 417.487 418.162 417.978 418.161H424.871C425.784 418.161 426.674 418.45 427.412 418.987C428.151 419.523 428.701 420.28 428.983 421.148C429.265 422.017 429.265 422.952 428.983 423.821C428.701 424.689 428.151 425.446 427.412 425.983L421.836 430.035C421.438 430.322 421.142 430.729 420.99 431.196C420.838 431.663 420.839 432.166 420.992 432.633L423.122 439.188C423.404 440.056 423.404 440.992 423.122 441.86C422.839 442.729 422.289 443.486 421.551 444.022C420.812 444.559 419.922 444.848 419.009 444.848C418.096 444.848 417.206 444.559 416.467 444.022L410.891 439.971C410.494 439.682 410.016 439.526 409.525 439.526C409.034 439.526 408.556 439.682 408.159 439.971L402.583 444.022C401.846 444.566 400.956 444.86 400.041 444.864ZM409.525 437.525C410.439 437.525 411.328 437.815 412.066 438.353L417.643 442.404C418.04 442.693 418.518 442.848 419.009 442.849C419.5 442.849 419.978 442.693 420.375 442.405C420.772 442.116 421.068 441.709 421.219 441.243C421.371 440.776 421.371 440.273 421.219 439.806L419.089 433.251C418.805 432.383 418.805 431.447 419.087 430.578C419.369 429.709 419.92 428.952 420.66 428.417L426.237 424.365C426.634 424.076 426.929 423.67 427.081 423.203C427.232 422.736 427.232 422.233 427.081 421.767C426.929 421.3 426.634 420.893 426.237 420.605C425.84 420.316 425.361 420.161 424.871 420.161H417.978C417.064 420.162 416.174 419.874 415.435 419.337C414.696 418.8 414.146 418.042 413.865 417.173L411.735 410.618C411.584 410.151 411.288 409.744 410.891 409.456C410.494 409.167 410.016 409.012 409.525 409.012C409.034 409.012 408.556 409.167 408.159 409.456C407.762 409.744 407.466 410.151 407.315 410.618L405.185 417.173C404.904 418.042 404.355 418.8 403.615 419.337C402.876 419.874 401.986 420.162 401.073 420.161H394.18C393.689 420.161 393.211 420.316 392.814 420.604C392.417 420.893 392.121 421.3 391.969 421.766C391.818 422.233 391.818 422.736 391.969 423.203C392.121 423.67 392.416 424.076 392.813 424.365L398.39 428.417C399.13 428.952 399.681 429.709 399.963 430.578C400.246 431.447 400.245 432.383 399.961 433.251L397.831 439.806C397.679 440.273 397.679 440.776 397.831 441.243C397.982 441.709 398.278 442.116 398.675 442.405C399.072 442.693 399.55 442.848 400.041 442.848C400.532 442.848 401.01 442.693 401.407 442.404L406.984 438.353C407.722 437.815 408.612 437.525 409.525 437.525Z" fill="#3F3D56"/>
<path d="M55 280C53.2761 280 51.6228 280.685 50.4038 281.904C49.1848 283.123 48.5 284.776 48.5 286.5C48.5 288.224 49.1848 289.877 50.4038 291.096C51.6228 292.315 53.2761 293 55 293H384C385.724 293 387.377 292.315 388.596 291.096C389.815 289.877 390.5 288.224 390.5 286.5C390.5 284.776 389.815 283.123 388.596 281.904C387.377 280.685 385.724 280 384 280H55Z" fill="#CCCCCC"/>
<path d="M55 348C53.2761 348 51.6228 348.685 50.4038 349.904C49.1848 351.123 48.5 352.776 48.5 354.5C48.5 356.224 49.1848 357.877 50.4038 359.096C51.6228 360.315 53.2761 361 55 361H384C385.724 361 387.377 360.315 388.596 359.096C389.815 357.877 390.5 356.224 390.5 354.5C390.5 352.776 389.815 351.123 388.596 349.904C387.377 348.685 385.724 348 384 348H55Z" fill="#CCCCCC"/>
<path d="M55 280C53.2761 280 51.6228 280.685 50.4038 281.904C49.1848 283.123 48.5 284.776 48.5 286.5C48.5 288.224 49.1848 289.877 50.4038 291.096C51.6228 292.315 53.2761 293 55 293H384C385.724 293 387.377 292.315 388.596 291.096C389.815 289.877 390.5 288.224 390.5 286.5C390.5 284.776 389.815 283.123 388.596 281.904C387.377 280.685 385.724 280 384 280H55Z" fill="#344F5A"/>
<path d="M53.6827 314C52.1756 314 50.7301 314.685 49.6644 315.904C48.5987 317.123 48 318.776 48 320.5C48 322.224 48.5987 323.877 49.6644 325.096C50.7301 326.315 52.1756 327 53.6827 327H341.317C342.824 327 344.27 326.315 345.336 325.096C346.401 323.877 347 322.224 347 320.5C347 318.776 346.401 317.123 345.336 315.904C344.27 314.685 342.824 314 341.317 314H53.6827Z" fill="#344F5A"/>
<path d="M55 348C53.2761 348 51.6228 348.685 50.4038 349.904C49.1848 351.123 48.5 352.776 48.5 354.5C48.5 356.224 49.1848 357.877 50.4038 359.096C51.6228 360.315 53.2761 361 55 361H384C385.724 361 387.377 360.315 388.596 359.096C389.815 357.877 390.5 356.224 390.5 354.5C390.5 352.776 389.815 351.123 388.596 349.904C387.377 348.685 385.724 348 384 348H55Z" fill="#344F5A"/>
<path d="M432 141H7C5.14412 140.998 3.36485 140.26 2.05255 138.947C0.740248 137.635 0.00208302 135.856 0 134V7C0.00208302 5.14412 0.740248 3.36485 2.05255 2.05255C3.36485 0.740248 5.14412 0.00208302 7 0H432C433.856 0.00208038 435.635 0.740247 436.948 2.05255C438.26 3.36486 438.998 5.14412 439 7V134C438.998 135.856 438.26 137.635 436.948 138.947C435.635 140.26 433.856 140.998 432 141ZM7 2C5.67439 2.00154 4.40352 2.52881 3.46617 3.46616C2.52882 4.40351 2.00154 5.67439 2 7V134C2.00154 135.326 2.52882 136.596 3.46617 137.534C4.40352 138.471 5.67439 138.998 7 139H432C433.326 138.998 434.597 138.471 435.534 137.534C436.471 136.597 436.999 135.326 437 134V7C436.999 5.67438 436.471 4.40349 435.534 3.46614C434.597 2.52879 433.326 2.00151 432 2H7Z" fill="#3F3D56"/>
<path d="M192.975 194.475C192.142 194.471 191.332 194.203 190.661 193.708L185.085 189.657C184.622 189.319 184.064 189.137 183.491 189.137C182.918 189.137 182.36 189.319 181.897 189.657L176.321 193.708C175.648 194.197 174.839 194.46 174.007 194.46C173.176 194.46 172.366 194.197 171.693 193.709C171.021 193.22 170.52 192.531 170.263 191.741C170.006 190.95 170.006 190.098 170.263 189.308L172.393 182.752C172.571 182.208 172.572 181.621 172.395 181.076C172.218 180.531 171.872 180.056 171.408 179.72L165.832 175.669C165.159 175.18 164.659 174.491 164.402 173.701C164.145 172.91 164.145 172.058 164.402 171.268C164.659 170.477 165.159 169.788 165.832 169.299C166.504 168.811 167.314 168.548 168.145 168.548H175.038C175.611 168.549 176.17 168.368 176.633 168.031C177.097 167.694 177.441 167.219 177.617 166.674L179.747 160.119C180.004 159.328 180.504 158.639 181.177 158.15C181.85 157.662 182.66 157.398 183.491 157.398C184.322 157.398 185.132 157.662 185.805 158.15C186.478 158.639 186.978 159.328 187.235 160.119L189.365 166.674C189.541 167.219 189.886 167.694 190.349 168.031C190.812 168.368 191.371 168.549 191.944 168.548H198.837C199.668 168.548 200.478 168.811 201.15 169.3C201.823 169.788 202.323 170.477 202.58 171.268C202.837 172.058 202.837 172.91 202.58 173.701C202.323 174.491 201.823 175.18 201.15 175.669L195.574 179.72C195.11 180.056 194.764 180.531 194.587 181.076C194.41 181.621 194.411 182.208 194.589 182.752L196.719 189.308C196.985 190.098 196.99 190.952 196.732 191.745C196.475 192.538 195.969 193.226 195.289 193.708C194.619 194.203 193.808 194.471 192.975 194.475Z" fill="#1BB042"/>
<path d="M249.483 194.475C248.65 194.471 247.839 194.203 247.169 193.708L241.592 189.657C241.13 189.319 240.572 189.137 239.999 189.137C239.426 189.137 238.868 189.319 238.405 189.657L232.829 193.708C232.156 194.197 231.346 194.46 230.515 194.46C229.683 194.46 228.874 194.197 228.201 193.709C227.528 193.22 227.028 192.531 226.771 191.741C226.514 190.95 226.514 190.098 226.771 189.308L228.901 182.752C229.079 182.208 229.079 181.621 228.902 181.076C228.725 180.531 228.38 180.056 227.916 179.72L222.339 175.669C221.667 175.18 221.166 174.491 220.909 173.701C220.653 172.91 220.653 172.058 220.909 171.268C221.166 170.477 221.667 169.788 222.34 169.3C223.012 168.811 223.822 168.548 224.653 168.548H231.546C232.119 168.549 232.677 168.368 233.141 168.031C233.604 167.694 233.949 167.219 234.125 166.674L236.255 160.119C236.512 159.328 237.012 158.639 237.685 158.15C238.357 157.662 239.167 157.398 239.999 157.398C240.83 157.398 241.64 157.662 242.313 158.15C242.985 158.639 243.486 159.328 243.743 160.119L245.872 166.674C246.049 167.219 246.393 167.695 246.857 168.031C247.32 168.368 247.879 168.549 248.451 168.548H255.344C256.175 168.548 256.985 168.811 257.658 169.3C258.33 169.788 258.831 170.477 259.088 171.268C259.345 172.058 259.345 172.91 259.088 173.701C258.831 174.491 258.331 175.18 257.658 175.669L252.082 179.72C251.617 180.056 251.272 180.531 251.095 181.076C250.918 181.621 250.918 182.208 251.097 182.752L253.227 189.308C253.493 190.098 253.498 190.952 253.24 191.745C252.982 192.538 252.476 193.226 251.796 193.708C251.126 194.203 250.316 194.471 249.483 194.475Z" fill="#1BB042"/>
<path d="M305.992 194.475C305.159 194.471 304.349 194.203 303.679 193.708L298.102 189.657C297.639 189.32 297.081 189.138 296.508 189.138C295.936 189.138 295.378 189.32 294.915 189.657L289.338 193.708C288.666 194.197 287.856 194.46 287.025 194.46C286.193 194.46 285.383 194.197 284.711 193.709C284.038 193.22 283.538 192.531 283.281 191.741C283.024 190.95 283.024 190.098 283.281 189.308L285.41 182.752C285.588 182.208 285.589 181.621 285.412 181.076C285.235 180.531 284.89 180.056 284.425 179.72L278.849 175.669C278.177 175.18 277.676 174.491 277.419 173.701C277.162 172.91 277.162 172.058 277.419 171.268C277.676 170.477 278.177 169.788 278.849 169.3C279.522 168.811 280.332 168.548 281.163 168.548H288.056C288.629 168.549 289.187 168.368 289.65 168.031C290.114 167.694 290.458 167.219 290.634 166.674L292.765 160.119C293.021 159.328 293.522 158.639 294.194 158.15C294.867 157.662 295.677 157.398 296.508 157.398C297.34 157.398 298.15 157.662 298.822 158.15C299.495 158.639 299.996 159.328 300.252 160.119L302.382 166.674C302.559 167.219 302.903 167.694 303.367 168.031C303.83 168.368 304.388 168.549 304.961 168.548H311.854C312.685 168.548 313.495 168.811 314.168 169.3C314.84 169.788 315.341 170.477 315.598 171.268C315.855 172.058 315.855 172.91 315.598 173.701C315.341 174.491 314.84 175.18 314.168 175.669L308.591 179.72C308.127 180.056 307.782 180.531 307.605 181.076C307.428 181.621 307.429 182.208 307.607 182.752L309.736 189.308C310.003 190.098 310.007 190.952 309.75 191.745C309.492 192.537 308.986 193.226 308.306 193.708C307.636 194.203 306.826 194.471 305.992 194.475Z" fill="#1BB042"/>
<path d="M418.766 194.076C417.933 194.073 417.123 193.805 416.452 193.31L410.876 189.259C410.413 188.922 409.855 188.74 409.282 188.74C408.709 188.74 408.151 188.922 407.688 189.259L402.112 193.31C401.439 193.799 400.629 194.062 399.798 194.062C398.967 194.062 398.157 193.799 397.484 193.31C396.812 192.822 396.311 192.133 396.054 191.342C395.797 190.552 395.797 189.7 396.054 188.909L398.184 182.354C398.362 181.809 398.362 181.222 398.185 180.677C398.008 180.133 397.663 179.658 397.199 179.322L391.622 175.27C390.95 174.782 390.449 174.093 390.193 173.302C389.936 172.512 389.936 171.66 390.193 170.869C390.45 170.079 390.95 169.39 391.623 168.901C392.295 168.412 393.105 168.149 393.936 168.149H400.829C401.402 168.15 401.96 167.969 402.424 167.633C402.887 167.296 403.232 166.821 403.408 166.276L405.538 159.72C405.795 158.93 406.295 158.241 406.968 157.752C407.64 157.263 408.451 157 409.282 157C410.113 157 410.923 157.263 411.596 157.752C412.268 158.241 412.769 158.93 413.026 159.72L415.156 166.276C415.332 166.821 415.677 167.296 416.14 167.633C416.603 167.969 417.162 168.15 417.735 168.149H424.627C425.459 168.149 426.269 168.412 426.941 168.901C427.614 169.39 428.114 170.079 428.371 170.869C428.628 171.66 428.628 172.512 428.371 173.302C428.114 174.093 427.614 174.782 426.941 175.27L421.365 179.322C420.901 179.658 420.555 180.133 420.378 180.677C420.201 181.222 420.202 181.809 420.38 182.354L422.51 188.909C422.776 189.699 422.781 190.554 422.523 191.346C422.266 192.139 421.76 192.828 421.08 193.31C420.409 193.805 419.599 194.073 418.766 194.076Z" fill="#1BB042"/>
<path d="M361.766 194.076C360.933 194.073 360.123 193.805 359.452 193.31L353.876 189.259C353.413 188.922 352.855 188.74 352.282 188.74C351.709 188.74 351.151 188.922 350.688 189.259L345.112 193.31C344.439 193.799 343.629 194.062 342.798 194.062C341.967 194.062 341.157 193.799 340.484 193.31C339.812 192.822 339.311 192.133 339.054 191.342C338.797 190.552 338.797 189.7 339.054 188.909L341.184 182.354C341.362 181.809 341.362 181.222 341.185 180.677C341.008 180.133 340.663 179.658 340.199 179.322L334.622 175.27C333.95 174.782 333.449 174.093 333.193 173.302C332.936 172.512 332.936 171.66 333.193 170.869C333.45 170.079 333.95 169.39 334.623 168.901C335.295 168.412 336.105 168.149 336.936 168.149H343.829C344.402 168.15 344.96 167.969 345.424 167.633C345.887 167.296 346.232 166.821 346.408 166.276L348.538 159.72C348.795 158.93 349.295 158.241 349.968 157.752C350.64 157.263 351.451 157 352.282 157C353.113 157 353.923 157.263 354.596 157.752C355.268 158.241 355.769 158.93 356.026 159.72L358.156 166.276C358.332 166.821 358.677 167.296 359.14 167.633C359.603 167.969 360.162 168.15 360.735 168.149H367.627C368.459 168.149 369.269 168.412 369.941 168.901C370.614 169.39 371.114 170.079 371.371 170.869C371.628 171.66 371.628 172.512 371.371 173.302C371.114 174.093 370.614 174.782 369.941 175.27L364.365 179.322C363.901 179.658 363.555 180.133 363.378 180.677C363.201 181.222 363.202 181.809 363.38 182.354L365.51 188.909C365.776 189.699 365.781 190.554 365.523 191.346C365.266 192.139 364.76 192.828 364.08 193.31C363.409 193.805 362.599 194.073 361.766 194.076Z" fill="#1BB042"/>
<path d="M55 64C53.2761 64 51.6228 64.6848 50.4038 65.9038C49.1848 67.1228 48.5 68.7761 48.5 70.5C48.5 72.2239 49.1848 73.8772 50.4038 75.0962C51.6228 76.3152 53.2761 77 55 77H384C385.724 77 387.377 76.3152 388.596 75.0962C389.815 73.8772 390.5 72.2239 390.5 70.5C390.5 68.7761 389.815 67.1228 388.596 65.9038C387.377 64.6848 385.724 64 384 64H55Z" fill="#CCCCCC"/>
<path d="M55 98C53.2761 98 51.6228 98.6848 50.4038 99.9038C49.1848 101.123 48.5 102.776 48.5 104.5C48.5 106.224 49.1848 107.877 50.4038 109.096C51.6228 110.315 53.2761 111 55 111H384C385.724 111 387.377 110.315 388.596 109.096C389.815 107.877 390.5 106.224 390.5 104.5C390.5 102.776 389.815 101.123 388.596 99.9038C387.377 98.6848 385.724 98 384 98H55Z" fill="#CCCCCC"/>
<path d="M53.6316 30C52.2706 30 50.9654 30.6848 50.003 31.9038C49.0406 33.1228 48.5 34.7761 48.5 36.5C48.5 38.2239 49.0406 39.8772 50.003 41.0962C50.9654 42.3152 52.2706 43 53.6316 43H313.368C314.729 43 316.035 42.3152 316.997 41.0962C317.959 39.8772 318.5 38.2239 318.5 36.5C318.5 34.7761 317.959 33.1228 316.997 31.9038C316.035 30.6848 314.729 30 313.368 30H53.6316Z" fill="#344F5A"/>
<path d="M55 64C53.2761 64 51.6228 64.6848 50.4038 65.9038C49.1848 67.1228 48.5 68.7761 48.5 70.5C48.5 72.2239 49.1848 73.8772 50.4038 75.0962C51.6228 76.3152 53.2761 77 55 77H384C385.724 77 387.377 76.3152 388.596 75.0962C389.815 73.8772 390.5 72.2239 390.5 70.5C390.5 68.7761 389.815 67.1228 388.596 65.9038C387.377 64.6848 385.724 64 384 64H55Z" fill="#344F5A"/>
<path d="M55 98C53.2761 98 51.6228 98.6848 50.4038 99.9038C49.1848 101.123 48.5 102.776 48.5 104.5C48.5 106.224 49.1848 107.877 50.4038 109.096C51.6228 110.315 53.2761 111 55 111H384C385.724 111 387.377 110.315 388.596 109.096C389.815 107.877 390.5 106.224 390.5 104.5C390.5 102.776 389.815 101.123 388.596 99.9038C387.377 98.6848 385.724 98 384 98H55Z" fill="#344F5A"/>
</g>
<defs>
<clipPath id="clip0_219_2">
<rect width="801.953" height="537" fill="white"/>
</clipPath>
</defs>
</svg>
