<svg width="48" height="48" viewBox="0 0 48 48" fill="none" xmlns="http://www.w3.org/2000/svg">
<path d="M33.95 15L30.204 34.126C30.204 34.126 30.043 35 28.959 35C28.383 35 28.086 34.726 28.086 34.726L19.972 27.993L16.002 25.992L10.907 24.637C10.907 24.637 10 24.375 10 23.625C10 23 10.933 22.702 10.933 22.702L32.249 14.234C32.249 14.234 32.9 13.999 33.375 14C33.667 14 34 14.125 34 14.5C34 14.75 33.95 15 33.95 15Z" fill="white"/>
<path d="M23.0008 30.5062L19.5748 33.8802C19.5748 33.8802 19.4258 33.9952 19.2268 34.0002C19.1578 34.0022 19.0838 33.9912 19.0078 33.9572L19.9718 27.9922L23.0008 30.5062Z" fill="#B0BEC5"/>
<path d="M29.897 18.1959C29.728 17.9759 29.416 17.9359 29.196 18.1029L16 25.9999C16 25.9999 18.106 31.8919 18.427 32.9119C18.749 33.9329 19.007 33.9569 19.007 33.9569L19.971 27.9919L29.803 18.8959C30.023 18.7289 30.064 18.4159 29.897 18.1959Z" fill="#CFD8DC"/>
</svg>
