<svg width="30" height="30" viewBox="0 0 30 30" fill="none" xmlns="http://www.w3.org/2000/svg">
<path d="M17.7266 15.0195C17.4082 15.0047 17.0281 15 16.6426 15C16.4956 15 16.1327 15.0525 15.8008 15.4102C15.7472 15.4678 15.6899 15.5277 15.6297 15.5905C14.979 16.2695 14 17.291 14 19.5938C14 21.9709 15.8972 24.6098 16.207 25.0195L16.209 25.0215C16.2718 25.1041 16.3391 25.199 16.4219 25.3157C16.5692 25.5234 16.7654 25.8 17.0723 26.1992C17.5526 26.824 18.2277 27.6499 19.0703 28.5371C20.7556 30.3115 23.1148 32.326 25.8906 33.5098C27.2593 34.0926 28.3163 34.437 29.1641 34.7031C30.3867 35.087 31.4999 35.0366 32.4375 34.8984C32.7493 34.8525 33.5914 34.5433 34.2832 34.1055C34.975 33.6677 35.5236 33.0667 35.6289 32.7754C35.8439 32.1802 35.9513 31.6243 35.9863 31.2227C35.999 31.0779 35.9956 30.9825 35.9922 30.8945C35.9663 30.8942 35.9018 30.8586 35.7888 30.7962C35.6835 30.7381 35.5359 30.6566 35.3379 30.5586C35.0536 30.4179 34.1785 29.9909 33.3164 29.5801C32.4543 29.1693 31.4874 28.7365 31.4102 28.709H31.4082V28.707C31.2818 28.6616 31.2538 28.6534 31.2388 28.649C31.2337 28.6475 31.2301 28.6465 31.2246 28.6445C30.7158 29.3907 29.6556 30.6013 29.2988 31.0059L29.2969 31.0078C29.0288 31.311 28.6076 31.6074 28.1191 31.666C27.6307 31.7247 27.2105 31.577 26.8262 31.3867C26.7839 31.3658 26.7032 31.3316 26.5913 31.2842C26.275 31.1503 25.7088 30.9105 25.0527 30.5645C24.1646 30.0959 23.0528 29.3997 21.8594 28.3477C19.9644 26.6793 18.745 24.6946 18.375 24.0664C18.0971 23.5946 18.0162 22.9626 18.1895 22.502C18.3458 22.0862 18.5872 21.8542 18.7455 21.7021C18.7624 21.686 18.7782 21.6707 18.793 21.6562C18.9024 21.5485 19.0724 21.3456 19.2637 21.1174C19.3793 20.9795 19.5026 20.8324 19.625 20.6914C19.7976 20.4925 19.8494 20.3872 19.9745 20.1327C20.0041 20.0725 20.0378 20.004 20.0781 19.9238C20.0855 19.9093 20.0915 19.9048 20.0951 19.9038C20.0875 19.8991 20.0676 19.8784 20.0293 19.8027L20.0273 19.8008V19.7988C19.9509 19.646 19.8837 19.4867 19.7759 19.2315C19.7592 19.1919 19.7415 19.15 19.7227 19.1055C19.6046 18.8264 19.4614 18.4828 19.3071 18.1125C19.278 18.0426 19.2485 17.9719 19.2188 17.9004C19.1202 17.6639 19.0185 17.4198 18.9178 17.1779C18.6348 16.4983 18.3592 15.8363 18.1797 15.4102C18.0859 15.1876 18.0174 15.0796 17.9806 15.031C17.9512 15.0309 17.8956 15.028 17.8009 15.0233C17.7784 15.0221 17.7537 15.0209 17.7266 15.0195Z" fill="#177C1A"/>
<path fill-rule="evenodd" clip-rule="evenodd" d="M25 4C36.6095 4 46 13.3905 46 25C46 36.6095 36.6095 46 25 46C21.278 46 17.7921 45.0296 14.7617 43.334C14.5401 43.2101 14.2796 43.1752 14.0332 43.2363L4.42578 45.6172L7.00195 36.4258C7.03882 36.2959 7.04899 36.1599 7.03188 36.0259C7.01476 35.892 6.97069 35.7629 6.90234 35.6465C5.06069 32.5236 4 28.8901 4 25C4 13.3905 13.3905 4 25 4ZM14.334 14.0488C15.086 13.2385 16.0015 13 16.6426 13C17.045 13 17.4507 13.0044 17.8203 13.0215H17.8223C17.8239 13.0216 17.8288 13.0211 17.8367 13.0204C17.9205 13.0128 18.3433 12.9746 18.8164 13.1953C19.3344 13.4369 19.7306 13.9377 20.0234 14.6328V14.6348C20.1967 15.0461 20.4523 15.6602 20.718 16.2988C20.8336 16.5764 20.951 16.8587 21.0645 17.1309C21.0843 17.1785 21.104 17.2258 21.1236 17.2728C21.2884 17.6683 21.4415 18.0357 21.5645 18.3262C21.6535 18.5365 21.7384 18.7287 21.783 18.8298C21.8071 18.8844 21.8195 18.9124 21.8145 18.9023V18.9043C22.0231 19.3187 22.224 20.1064 21.8633 20.8223C21.8408 20.8669 21.8185 20.912 21.796 20.9575C21.6375 21.2779 21.4682 21.6201 21.1367 22.002C21.0543 22.0969 20.9672 22.2025 20.8757 22.3135C20.6708 22.562 20.4437 22.8373 20.1973 23.0801L20.1953 23.082C20.1677 23.1092 20.1636 23.1108 20.1613 23.1117C20.1595 23.1124 20.1589 23.1126 20.1484 23.125C20.4973 23.7111 21.603 25.4559 23.1816 26.8457V26.8477C24.2423 27.7826 25.2115 28.3862 25.9863 28.7949C26.469 29.0495 26.8542 29.2154 27.1795 29.3556C27.3764 29.4404 27.5515 29.5158 27.7129 29.5957C27.8497 29.6634 27.8196 29.6495 27.8242 29.6523C28.1704 29.2583 29.3058 27.9181 29.5879 27.5C29.8855 27.0589 30.3966 26.6856 30.9141 26.627C31.3913 26.5729 31.7334 26.6981 32.0141 26.8008C32.0378 26.8094 32.0611 26.8179 32.084 26.8262C32.495 26.9727 33.1327 27.2773 33.8775 27.633C33.9752 27.6797 34.0747 27.7272 34.1758 27.7754C35.0487 28.1913 35.9189 28.6163 36.2246 28.7676C36.357 28.8331 36.488 28.884 36.6172 28.9342C37.0249 29.0925 37.414 29.2437 37.7676 29.8242C37.9598 30.1397 37.9704 30.3188 37.9821 30.5158C37.9839 30.5464 37.9857 30.5774 37.9883 30.6094C38.0072 30.8476 38.004 31.1049 37.9785 31.3965C37.9276 31.9796 37.7868 32.6882 37.5098 33.4551C37.1231 34.5247 36.2462 35.2287 35.3516 35.7949C34.4569 36.3611 33.5526 36.7559 32.7305 36.877C31.6321 37.0388 30.1698 37.1154 28.5645 36.6113C27.6982 36.3394 26.5548 35.9668 25.1055 35.3496C21.9583 34.0074 19.4226 31.8129 17.6191 29.9141C16.7174 28.9646 15.9996 28.0877 15.4863 27.4199C14.973 26.7522 14.5885 26.1953 14.6152 26.2305V26.2285H14.6133C14.6023 26.214 14.5882 26.1957 14.5713 26.1737C14.1535 25.6295 12 22.8245 12 19.5938C12 16.5226 13.7077 14.7129 14.2603 14.1273C14.2879 14.0981 14.3125 14.0719 14.334 14.0488Z" fill="white"/>
<path fill-rule="evenodd" clip-rule="evenodd" d="M14.334 14.0488C15.086 13.2385 16.0015 13 16.6426 13C17.045 13 17.4507 13.0044 17.8203 13.0215H17.8223C17.8239 13.0216 17.8288 13.0211 17.8367 13.0204C17.9205 13.0128 18.3433 12.9746 18.8164 13.1953C19.3344 13.4369 19.7306 13.9377 20.0234 14.6328V14.6348C20.1967 15.0461 20.4523 15.6602 20.718 16.2988C20.8336 16.5764 20.951 16.8587 21.0645 17.1309C21.0843 17.1785 21.104 17.2258 21.1236 17.2728C21.2884 17.6683 21.4415 18.0357 21.5645 18.3262C21.6535 18.5365 21.7384 18.7287 21.783 18.8298C21.8071 18.8844 21.8195 18.9124 21.8145 18.9023V18.9043C22.0231 19.3187 22.224 20.1064 21.8633 20.8223C21.8408 20.8669 21.8185 20.912 21.796 20.9575C21.6375 21.2779 21.4682 21.6201 21.1367 22.002C21.0543 22.0969 20.9672 22.2025 20.8757 22.3135C20.6708 22.562 20.4437 22.8373 20.1973 23.0801L20.1953 23.082C20.1677 23.1092 20.1636 23.1108 20.1613 23.1117C20.1595 23.1124 20.1589 23.1126 20.1484 23.125C20.4973 23.7111 21.603 25.4559 23.1816 26.8457V26.8477C24.2423 27.7826 25.2115 28.3862 25.9863 28.7949C26.469 29.0495 26.8542 29.2154 27.1795 29.3556C27.3764 29.4404 27.5515 29.5158 27.7129 29.5957C27.8265 29.6519 27.8253 29.6524 27.8242 29.6523C27.8234 29.6519 27.824 29.6523 27.8242 29.6523C28.1704 29.2583 29.3058 27.9181 29.5879 27.5C29.8855 27.0589 30.3966 26.6856 30.9141 26.627C31.3913 26.5729 31.7334 26.6981 32.0141 26.8008C32.0378 26.8094 32.0611 26.8179 32.084 26.8262C32.495 26.9727 33.1327 27.2773 33.8775 27.633C33.9752 27.6797 34.0747 27.7272 34.1758 27.7754C35.0487 28.1913 35.9189 28.6163 36.2246 28.7676C36.357 28.8331 36.488 28.884 36.6172 28.9342C37.0249 29.0925 37.414 29.2437 37.7676 29.8242C37.9598 30.1397 37.9704 30.3188 37.9821 30.5158C37.9839 30.5464 37.9857 30.5774 37.9883 30.6094C38.0072 30.8476 38.004 31.1049 37.9785 31.3965C37.9276 31.9796 37.7868 32.6882 37.5098 33.4551C37.1231 34.5247 36.2462 35.2287 35.3516 35.7949C34.4569 36.3611 33.5526 36.7559 32.7305 36.877C31.6321 37.0388 30.1698 37.1154 28.5645 36.6113C27.6982 36.3394 26.5548 35.9668 25.1055 35.3496C21.9583 34.0074 19.4226 31.8129 17.6191 29.9141C16.7174 28.9646 15.9996 28.0877 15.4863 27.4199C14.973 26.7522 14.5885 26.1953 14.6152 26.2305V26.2285H14.6133C14.6023 26.214 14.5882 26.1957 14.5713 26.1737C14.1535 25.6295 12 22.8245 12 19.5938C12 16.5226 13.7077 14.7129 14.2603 14.1273C14.2879 14.0981 14.3125 14.0719 14.334 14.0488ZM17.7266 15.0195C17.4082 15.0047 17.0281 15 16.6426 15C16.4956 15 16.1327 15.0525 15.8008 15.4102C15.7472 15.4678 15.6899 15.5277 15.6297 15.5905C14.979 16.2695 14 17.291 14 19.5938C14 21.9709 15.8972 24.6098 16.207 25.0195L16.209 25.0215C16.2718 25.1041 16.3391 25.199 16.4219 25.3157C16.5692 25.5234 16.7654 25.8 17.0723 26.1992C17.5526 26.824 18.2277 27.6499 19.0703 28.5371C20.7556 30.3115 23.1148 32.326 25.8906 33.5098C27.2593 34.0926 28.3163 34.437 29.1641 34.7031C30.3867 35.087 31.4999 35.0366 32.4375 34.8984C32.7493 34.8525 33.5914 34.5433 34.2832 34.1055C34.975 33.6677 35.5236 33.0667 35.6289 32.7754C35.8439 32.1802 35.9513 31.6243 35.9863 31.2227C35.999 31.0779 35.9956 30.9825 35.9922 30.8945C35.9663 30.8942 35.9018 30.8586 35.7888 30.7962C35.6835 30.7381 35.5359 30.6566 35.3379 30.5586C35.0536 30.4179 34.1785 29.9909 33.3164 29.5801C32.4543 29.1693 31.4874 28.7365 31.4102 28.709H31.4082V28.707C31.2818 28.6616 31.2538 28.6534 31.2388 28.649C31.2337 28.6475 31.2301 28.6465 31.2246 28.6445C30.7158 29.3907 29.6556 30.6013 29.2988 31.0059L29.2969 31.0078C29.0288 31.311 28.6076 31.6074 28.1191 31.666C27.6307 31.7247 27.2105 31.577 26.8262 31.3867C26.7839 31.3658 26.7032 31.3316 26.5913 31.2842C26.275 31.1503 25.7088 30.9105 25.0527 30.5645C24.1646 30.0959 23.0528 29.3997 21.8594 28.3477C19.9644 26.6793 18.745 24.6946 18.375 24.0664C18.0971 23.5946 18.0162 22.9626 18.1895 22.502C18.3458 22.0862 18.5872 21.8542 18.7455 21.7021C18.7624 21.686 18.7782 21.6707 18.793 21.6562C18.9024 21.5485 19.0724 21.3456 19.2637 21.1174C19.3793 20.9795 19.5026 20.8324 19.625 20.6914C19.7976 20.4925 19.8494 20.3872 19.9745 20.1327C20.0041 20.0725 20.0378 20.004 20.0781 19.9238C20.0855 19.9093 20.0915 19.9048 20.0951 19.9038C20.0875 19.8991 20.0676 19.8784 20.0293 19.8027L20.0273 19.8008V19.7988C19.9509 19.646 19.8837 19.4867 19.7759 19.2315C19.7592 19.1919 19.7415 19.15 19.7227 19.1055C19.6046 18.8264 19.4614 18.4828 19.3071 18.1125C19.278 18.0426 19.2485 17.9719 19.2188 17.9004C19.1202 17.6639 19.0185 17.4198 18.9178 17.1779C18.6348 16.4983 18.3592 15.8363 18.1797 15.4102C18.0859 15.1876 18.0174 15.0796 17.9806 15.031C17.9512 15.0309 17.8956 15.028 17.8009 15.0233C17.7784 15.0221 17.7537 15.0209 17.7266 15.0195Z" fill="#177C1A"/>
<path fill-rule="evenodd" clip-rule="evenodd" d="M25 2C12.3095 2 2 12.3095 2 25C2 29.0791 3.11869 32.8859 4.98438 36.209L2.03711 46.7305C1.99002 46.8988 1.9879 47.0766 2.03094 47.246C2.07398 47.4155 2.16069 47.5707 2.28242 47.6962C2.40415 47.8217 2.55665 47.913 2.72471 47.9612C2.89277 48.0094 3.07052 48.0127 3.24023 47.9707L14.2109 45.252C17.4346 46.9729 21.0926 48 25 48C37.6905 48 48 37.6905 48 25C48 12.3095 37.6905 2 25 2ZM46 25C46 13.3905 36.6095 4 25 4C13.3905 4 4 13.3905 4 25C4 28.8901 5.06069 32.5236 6.90234 35.6465C6.97069 35.7629 7.01476 35.892 7.03188 36.0259C7.04899 36.1599 7.03882 36.2959 7.00195 36.4258L4.42578 45.6172L14.0332 43.2363C14.2796 43.1752 14.5401 43.2101 14.7617 43.334C17.7921 45.0296 21.278 46 25 46C36.6095 46 46 36.6095 46 25Z" fill="white"/>
</svg>
