<svg xmlns="http://www.w3.org/2000/svg" version="1.1" xmlns:xlink="http://www.w3.org/1999/xlink" xmlns:svgjs="http://svgjs.dev/svgjs" viewBox="0 0 1422 800"><symbol id="SvgjsSymbol1057"><polygon points="0,6.25 12.5,0 25,6.25 12.5,12.5"></polygon></symbol><symbol id="SvgjsSymbol1058"><polygon points="0,6.25 12.5,12.5 12.5,25 0,18.75"></polygon></symbol><symbol id="SvgjsSymbol1059"><polygon points="12.5,12.5 25,6.25 25,18.75 12.5,25"></polygon></symbol><g shape-rendering="crispEdges"><g><use xlink:href="#SvgjsSymbol1057" x="425" y="443.75" fill="rgba(249, 120, 37, 0.5)"></use><use xlink:href="#SvgjsSymbol1058" x="425" y="443.75" fill="#ffa95580"></use><use xlink:href="#SvgjsSymbol1059" x="425" y="443.75" fill="#bf490080"></use></g><g><use xlink:href="#SvgjsSymbol1057" x="718.75" y="618.75" fill="rgba(249, 120, 37, 0.5)"></use><use xlink:href="#SvgjsSymbol1058" x="718.75" y="618.75" fill="#ffa95580"></use><use xlink:href="#SvgjsSymbol1059" x="718.75" y="618.75" fill="#bf490080"></use></g><g><use xlink:href="#SvgjsSymbol1057" x="793.75" y="356.25" fill="rgba(249, 120, 37, 0.5)"></use><use xlink:href="#SvgjsSymbol1058" x="793.75" y="356.25" fill="#ffa95580"></use><use xlink:href="#SvgjsSymbol1059" x="793.75" y="356.25" fill="#bf490080"></use></g><g><use xlink:href="#SvgjsSymbol1057" x="300" y="137.5" fill="rgba(249, 120, 37, 0.5)"></use><use xlink:href="#SvgjsSymbol1058" x="300" y="137.5" fill="#ffa95580"></use><use xlink:href="#SvgjsSymbol1059" x="300" y="137.5" fill="#bf490080"></use></g><g><use xlink:href="#SvgjsSymbol1057" x="1168.75" y="56.25" fill="rgba(249, 120, 37, 0.5)"></use><use xlink:href="#SvgjsSymbol1058" x="1168.75" y="56.25" fill="#ffa95580"></use><use xlink:href="#SvgjsSymbol1059" x="1168.75" y="56.25" fill="#bf490080"></use></g><g><use xlink:href="#SvgjsSymbol1057" x="1193.75" y="581.25" fill="rgba(249, 120, 37, 0.5)"></use><use xlink:href="#SvgjsSymbol1058" x="1193.75" y="581.25" fill="#ffa95580"></use><use xlink:href="#SvgjsSymbol1059" x="1193.75" y="581.25" fill="#bf490080"></use></g><g><use xlink:href="#SvgjsSymbol1057" x="712.5" y="81.25" fill="rgba(249, 120, 37, 0.5)"></use><use xlink:href="#SvgjsSymbol1058" x="712.5" y="81.25" fill="#ffa95580"></use><use xlink:href="#SvgjsSymbol1059" x="712.5" y="81.25" fill="#bf490080"></use></g><g><use xlink:href="#SvgjsSymbol1057" x="518.75" y="287.5" fill="rgba(249, 120, 37, 0.5)"></use><use xlink:href="#SvgjsSymbol1058" x="518.75" y="287.5" fill="#ffa95580"></use><use xlink:href="#SvgjsSymbol1059" x="518.75" y="287.5" fill="#bf490080"></use></g><g><use xlink:href="#SvgjsSymbol1057" x="506.25" y="218.75" fill="rgba(249, 120, 37, 0.5)"></use><use xlink:href="#SvgjsSymbol1058" x="506.25" y="218.75" fill="#ffa95580"></use><use xlink:href="#SvgjsSymbol1059" x="506.25" y="218.75" fill="#bf490080"></use></g><g><use xlink:href="#SvgjsSymbol1057" x="381.25" y="337.5" fill="rgba(249, 120, 37, 0.5)"></use><use xlink:href="#SvgjsSymbol1058" x="381.25" y="337.5" fill="#ffa95580"></use><use xlink:href="#SvgjsSymbol1059" x="381.25" y="337.5" fill="#bf490080"></use></g><g><use xlink:href="#SvgjsSymbol1057" x="168.75" y="587.5" fill="rgba(249, 120, 37, 0.5)"></use><use xlink:href="#SvgjsSymbol1058" x="168.75" y="587.5" fill="#ffa95580"></use><use xlink:href="#SvgjsSymbol1059" x="168.75" y="587.5" fill="#bf490080"></use></g><g><use xlink:href="#SvgjsSymbol1072" x="875" y="525" fill="rgba(249, 120, 37, 0.5)"></use><use xlink:href="#SvgjsSymbol1073" x="875" y="525" fill="#ffa95580"></use><use xlink:href="#SvgjsSymbol1074" x="875" y="525" fill="#bf490080"></use></g><g><use xlink:href="#SvgjsSymbol1072" x="900" y="500" fill="rgba(249, 120, 37, 0.5)"></use><use xlink:href="#SvgjsSymbol1073" x="900" y="500" fill="#ffa95580"></use><use xlink:href="#SvgjsSymbol1074" x="900" y="500" fill="#bf490080"></use></g><g><use xlink:href="#SvgjsSymbol1072" x="925" y="325" fill="rgba(249, 120, 37, 0.5)"></use><use xlink:href="#SvgjsSymbol1073" x="925" y="325" fill="#ffa95580"></use><use xlink:href="#SvgjsSymbol1074" x="925" y="325" fill="#bf490080"></use></g><g><use xlink:href="#SvgjsSymbol1072" x="1000" y="375" fill="rgba(249, 120, 37, 0.5)"></use><use xlink:href="#SvgjsSymbol1073" x="1000" y="375" fill="#ffa95580"></use><use xlink:href="#SvgjsSymbol1074" x="1000" y="375" fill="#bf490080"></use></g><g><use xlink:href="#SvgjsSymbol1072" x="900" y="100" fill="rgba(249, 120, 37, 0.5)"></use><use xlink:href="#SvgjsSymbol1073" x="900" y="100" fill="#ffa95580"></use><use xlink:href="#SvgjsSymbol1074" x="900" y="100" fill="#bf490080"></use></g><g><use xlink:href="#SvgjsSymbol1072" x="625" y="225" fill="rgba(249, 120, 37, 0.5)"></use><use xlink:href="#SvgjsSymbol1073" x="625" y="225" fill="#ffa95580"></use><use xlink:href="#SvgjsSymbol1074" x="625" y="225" fill="#bf490080"></use></g><g><use xlink:href="#SvgjsSymbol1072" x="200" y="325" fill="rgba(249, 120, 37, 0.5)"></use><use xlink:href="#SvgjsSymbol1073" x="200" y="325" fill="#ffa95580"></use><use xlink:href="#SvgjsSymbol1074" x="200" y="325" fill="#bf490080"></use></g><g><use xlink:href="#SvgjsSymbol1078" x="1350" y="225" fill="rgba(249, 120, 37, 0.5)"></use><use xlink:href="#SvgjsSymbol1079" x="1350" y="225" fill="#ffa95580"></use><use xlink:href="#SvgjsSymbol1080" x="1350" y="225" fill="#bf490080"></use></g><g><use xlink:href="#SvgjsSymbol1078" x="1275" y="112.5" fill="rgba(249, 120, 37, 0.5)"></use><use xlink:href="#SvgjsSymbol1079" x="1275" y="112.5" fill="#ffa95580"></use><use xlink:href="#SvgjsSymbol1080" x="1275" y="112.5" fill="#bf490080"></use></g><g><use xlink:href="#SvgjsSymbol1078" x="637.5" y="375" fill="rgba(27, 176, 66, 0.5)"></use><use xlink:href="#SvgjsSymbol1079" x="637.5" y="375" fill="#5fe37180"></use><use xlink:href="#SvgjsSymbol1080" x="637.5" y="375" fill="#007f1080"></use></g><g><use xlink:href="#SvgjsSymbol1078" x="1125" y="187.5" fill="rgba(27, 176, 66, 0.5)"></use><use xlink:href="#SvgjsSymbol1079" x="1125" y="187.5" fill="#5fe37180"></use><use xlink:href="#SvgjsSymbol1080" x="1125" y="187.5" fill="#007f1080"></use></g><g><use xlink:href="#SvgjsSymbol1078" x="1200" y="375" fill="rgba(27, 176, 66, 0.5)"></use><use xlink:href="#SvgjsSymbol1079" x="1200" y="375" fill="#5fe37180"></use><use xlink:href="#SvgjsSymbol1080" x="1200" y="375" fill="#007f1080"></use></g><g><use xlink:href="#SvgjsSymbol1081" x="487.5" y="581.25" fill="rgba(27, 176, 66, 0.5)"></use><use xlink:href="#SvgjsSymbol1082" x="487.5" y="581.25" fill="#5fe37180"></use><use xlink:href="#SvgjsSymbol1083" x="487.5" y="581.25" fill="#007f1080"></use></g><g><use xlink:href="#SvgjsSymbol1081" x="637.5" y="93.75" fill="rgba(27, 176, 66, 0.5)"></use><use xlink:href="#SvgjsSymbol1082" x="637.5" y="93.75" fill="#5fe37180"></use><use xlink:href="#SvgjsSymbol1083" x="637.5" y="93.75" fill="#007f1080"></use></g><g><use xlink:href="#SvgjsSymbol1081" x="600" y="131.25" fill="rgba(27, 176, 66, 0.5)"></use><use xlink:href="#SvgjsSymbol1082" x="600" y="131.25" fill="#5fe37180"></use><use xlink:href="#SvgjsSymbol1083" x="600" y="131.25" fill="#007f1080"></use></g><g><use xlink:href="#SvgjsSymbol1081" x="300" y="206.25" fill="rgba(27, 176, 66, 0.5)"></use><use xlink:href="#SvgjsSymbol1082" x="300" y="206.25" fill="#5fe37180"></use><use xlink:href="#SvgjsSymbol1083" x="300" y="206.25" fill="#007f1080"></use></g><g><use xlink:href="#SvgjsSymbol1087" x="0" y="718.75" fill="rgba(27, 176, 66, 0.5)"></use><use xlink:href="#SvgjsSymbol1088" x="0" y="718.75" fill="#5fe37180"></use><use xlink:href="#SvgjsSymbol1089" x="0" y="718.75" fill="#007f1080"></use></g><g><use xlink:href="#SvgjsSymbol1087" x="62.5" y="437.5" fill="rgba(27, 176, 66, 0.5)"></use><use xlink:href="#SvgjsSymbol1088" x="62.5" y="437.5" fill="#5fe37180"></use><use xlink:href="#SvgjsSymbol1089" x="62.5" y="437.5" fill="#007f1080"></use></g><g><use xlink:href="#SvgjsSymbol1099" x="343.75" y="587.5" fill="rgba(27, 176, 66, 0.5)"></use><use xlink:href="#SvgjsSymbol1100" x="343.75" y="587.5" fill="#5fe37180"></use><use xlink:href="#SvgjsSymbol1101" x="343.75" y="587.5" fill="#007f1080"></use></g><g><use xlink:href="#SvgjsSymbol1099" x="12.5" y="131.25" fill="rgba(27, 176, 66, 0.5)"></use><use xlink:href="#SvgjsSymbol1100" x="12.5" y="131.25" fill="#5fe37180"></use><use xlink:href="#SvgjsSymbol1101" x="12.5" y="131.25" fill="#007f1080"></use></g><g><use xlink:href="#SvgjsSymbol1108" x="0" y="275" fill="rgba(27, 176, 66, 0.5)"></use><use xlink:href="#SvgjsSymbol1109" x="0" y="275" fill="#5fe37180"></use><use xlink:href="#SvgjsSymbol1110" x="0" y="275" fill="#007f1080"></use></g></g><g></g><symbol id="SvgjsSymbol1060"><polygon points="0,12.5 25,0 50,12.5 25,25"></polygon></symbol><symbol id="SvgjsSymbol1061"><polygon points="0,12.5 25,25 25,50 0,37.5"></polygon></symbol><symbol id="SvgjsSymbol1062"><polygon points="25,25 50,12.5 50,37.5 25,50"></polygon></symbol><symbol id="SvgjsSymbol1063"><polygon points="0,18.75 37.5,0 75,18.75 37.5,37.5"></polygon></symbol><symbol id="SvgjsSymbol1064"><polygon points="0,18.75 37.5,37.5 37.5,75 0,56.25"></polygon></symbol><symbol id="SvgjsSymbol1065"><polygon points="37.5,37.5 75,18.75 75,56.25 37.5,75"></polygon></symbol><symbol id="SvgjsSymbol1066"><polygon points="0,25 50,0 100,25 50,50"></polygon></symbol><symbol id="SvgjsSymbol1067"><polygon points="0,25 50,50 50,100 0,75"></polygon></symbol><symbol id="SvgjsSymbol1068"><polygon points="50,50 100,25 100,75 50,100"></polygon></symbol><symbol id="SvgjsSymbol1069"><polygon points="0,31.25 62.5,0 125,31.25 62.5,62.5"></polygon></symbol><symbol id="SvgjsSymbol1070"><polygon points="0,31.25 62.5,62.5 62.5,125 0,93.75"></polygon></symbol><symbol id="SvgjsSymbol1071"><polygon points="62.5,62.5 125,31.25 125,93.75 62.5,125"></polygon></symbol><symbol id="SvgjsSymbol1072"><polygon points="0,25 50,0 100,25 50,50"></polygon></symbol><symbol id="SvgjsSymbol1073"><polygon points="0,25 50,50 50,100 0,75"></polygon></symbol><symbol id="SvgjsSymbol1074"><polygon points="50,50 100,25 100,75 50,100"></polygon></symbol><symbol id="SvgjsSymbol1075"><polygon points="0,31.25 62.5,0 125,31.25 62.5,62.5"></polygon></symbol><symbol id="SvgjsSymbol1076"><polygon points="0,31.25 62.5,62.5 62.5,125 0,93.75"></polygon></symbol><symbol id="SvgjsSymbol1077"><polygon points="62.5,62.5 125,31.25 125,93.75 62.5,125"></polygon></symbol><symbol id="SvgjsSymbol1078"><polygon points="0,37.5 75,0 150,37.5 75,75"></polygon></symbol><symbol id="SvgjsSymbol1079"><polygon points="0,37.5 75,75 75,150 0,112.5"></polygon></symbol><symbol id="SvgjsSymbol1080"><polygon points="75,75 150,37.5 150,112.5 75,150"></polygon></symbol><symbol id="SvgjsSymbol1081"><polygon points="0,18.75 37.5,0 75,18.75 37.5,37.5"></polygon></symbol><symbol id="SvgjsSymbol1082"><polygon points="0,18.75 37.5,37.5 37.5,75 0,56.25"></polygon></symbol><symbol id="SvgjsSymbol1083"><polygon points="37.5,37.5 75,18.75 75,56.25 37.5,75"></polygon></symbol><symbol id="SvgjsSymbol1084"><polygon points="0,25 50,0 100,25 50,50"></polygon></symbol><symbol id="SvgjsSymbol1085"><polygon points="0,25 50,50 50,100 0,75"></polygon></symbol><symbol id="SvgjsSymbol1086"><polygon points="50,50 100,25 100,75 50,100"></polygon></symbol><symbol id="SvgjsSymbol1087"><polygon points="0,31.25 62.5,0 125,31.25 62.5,62.5"></polygon></symbol><symbol id="SvgjsSymbol1088"><polygon points="0,31.25 62.5,62.5 62.5,125 0,93.75"></polygon></symbol><symbol id="SvgjsSymbol1089"><polygon points="62.5,62.5 125,31.25 125,93.75 62.5,125"></polygon></symbol><symbol id="SvgjsSymbol1090"><polygon points="0,25 50,0 100,25 50,50"></polygon></symbol><symbol id="SvgjsSymbol1091"><polygon points="0,25 50,50 50,100 0,75"></polygon></symbol><symbol id="SvgjsSymbol1092"><polygon points="50,50 100,25 100,75 50,100"></polygon></symbol><symbol id="SvgjsSymbol1093"><polygon points="0,18.75 37.5,0 75,18.75 37.5,37.5"></polygon></symbol><symbol id="SvgjsSymbol1094"><polygon points="0,18.75 37.5,37.5 37.5,75 0,56.25"></polygon></symbol><symbol id="SvgjsSymbol1095"><polygon points="37.5,37.5 75,18.75 75,56.25 37.5,75"></polygon></symbol><symbol id="SvgjsSymbol1096"><polygon points="0,12.5 25,0 50,12.5 25,25"></polygon></symbol><symbol id="SvgjsSymbol1097"><polygon points="0,12.5 25,25 25,50 0,37.5"></polygon></symbol><symbol id="SvgjsSymbol1098"><polygon points="25,25 50,12.5 50,37.5 25,50"></polygon></symbol><symbol id="SvgjsSymbol1099"><polygon points="0,6.25 12.5,0 25,6.25 12.5,12.5"></polygon></symbol><symbol id="SvgjsSymbol1100"><polygon points="0,6.25 12.5,12.5 12.5,25 0,18.75"></polygon></symbol><symbol id="SvgjsSymbol1101"><polygon points="12.5,12.5 25,6.25 25,18.75 12.5,25"></polygon></symbol><symbol id="SvgjsSymbol1102"><polygon points="0,12.5 25,0 50,12.5 25,25"></polygon></symbol><symbol id="SvgjsSymbol1103"><polygon points="0,12.5 25,25 25,50 0,37.5"></polygon></symbol><symbol id="SvgjsSymbol1104"><polygon points="25,25 50,12.5 50,37.5 25,50"></polygon></symbol><symbol id="SvgjsSymbol1105"><polygon points="0,18.75 37.5,0 75,18.75 37.5,37.5"></polygon></symbol><symbol id="SvgjsSymbol1106"><polygon points="0,18.75 37.5,37.5 37.5,75 0,56.25"></polygon></symbol><symbol id="SvgjsSymbol1107"><polygon points="37.5,37.5 75,18.75 75,56.25 37.5,75"></polygon></symbol><symbol id="SvgjsSymbol1108"><polygon points="0,25 50,0 100,25 50,50"></polygon></symbol><symbol id="SvgjsSymbol1109"><polygon points="0,25 50,50 50,100 0,75"></polygon></symbol><symbol id="SvgjsSymbol1110"><polygon points="50,50 100,25 100,75 50,100"></polygon></symbol></svg>