<svg width="944" height="796" viewBox="0 0 944 796" fill="none" xmlns="http://www.w3.org/2000/svg">
<g clip-path="url(#clip0_202_2)">
<path d="M768 384C768 395.18 767.53 406.247 766.59 417.2C765.85 425.75 764.84 434.224 763.56 442.62C762.2 451.51 760.533 460.294 758.56 468.97V468.98C757.27 474.69 755.853 480.354 754.31 485.97C749.832 502.299 744.263 518.308 737.64 533.891C736.2 537.28 734.713 540.647 733.18 543.99C727.378 556.652 720.881 568.984 713.72 580.93C693.636 614.477 668.566 644.774 639.37 670.781C636.21 673.591 633.007 676.354 629.76 679.07C560.826 736.656 473.822 768.139 384 768C171.92 768 0 596.08 0 384C0 171.92 171.92 0.000475613 384 0.000475613C470.729 -0.136276 554.927 29.2204 622.77 83.2505C625.95 85.7704 629.09 88.3471 632.19 90.9805C647.318 103.81 661.436 117.785 674.42 132.78H674.43C734.904 202.491 768.137 291.715 768 384Z" fill="#F2F2F2"/>
<path d="M113.356 450.331C76.7759 428.559 49.1664 387.871 52.7508 345.453C86.1943 377.462 129.882 396.609 176.084 399.508C193.906 400.561 213.838 399.877 226.957 411.986C235.121 419.521 238.921 430.864 239.544 441.955C240.167 453.047 237.945 464.079 235.735 474.966L236.495 477.632C193.927 477.792 149.937 472.103 113.356 450.331Z" fill="#E6E6E6"/>
<path d="M53.6422 345.406C68.2991 377.449 92.6795 404.058 123.32 421.455C129.908 425.142 136.911 428.309 144.353 429.778C151.617 431.154 159.118 430.56 166.076 428.057C172.61 425.853 179.039 422.843 185.995 422.266C193.327 421.658 200.114 424.486 205.447 429.441C211.973 435.503 215.93 443.548 219.527 451.55C223.521 460.434 227.529 469.726 235.186 476.115C236.114 476.889 234.858 478.283 233.932 477.51C220.61 466.394 218.435 447.778 207.786 434.687C202.817 428.578 195.976 423.93 187.85 424.052C180.745 424.159 174.113 427.258 167.516 429.547C160.59 431.95 153.651 433.078 146.338 432.021C138.858 430.94 131.716 428.04 125.064 424.537C110.037 416.482 96.3713 406.115 84.5656 393.814C71.0141 379.851 59.951 363.672 51.855 345.978C51.3544 344.883 53.1449 344.318 53.6422 345.406Z" fill="white"/>
<path d="M113.126 416.435C109.509 421.18 104.323 424.484 98.4952 425.759C92.667 427.033 86.5755 426.194 81.3087 423.392C80.245 422.821 81.0818 421.141 82.147 421.713C87.0466 424.331 92.7209 425.112 98.1457 423.914C103.571 422.717 108.389 419.619 111.73 415.181C112.457 414.218 113.849 415.477 113.126 416.435Z" fill="white"/>
<path d="M162.91 429.612C161.388 417.512 155.361 406.43 146.031 398.576C145.106 397.799 146.361 396.404 147.285 397.181C156.979 405.372 163.227 416.917 164.784 429.512C164.931 430.713 163.057 430.807 162.91 429.612Z" fill="white"/>
<path d="M73.3419 378.973C75.1238 377.429 76.4943 375.467 77.3303 373.262C78.1663 371.057 78.4416 368.679 78.1315 366.342C77.9688 365.144 79.8434 365.051 80.005 366.242C80.3356 368.826 80.0284 371.452 79.1101 373.89C78.1919 376.327 76.6906 378.503 74.7374 380.227C74.567 380.405 74.3351 380.512 74.089 380.525C73.843 380.538 73.6011 380.457 73.4127 380.298C73.2287 380.131 73.1181 379.898 73.1049 379.65C73.0916 379.402 73.1768 379.159 73.3419 378.973Z" fill="white"/>
<path d="M171.16 263.273C171.283 264.019 171.406 264.764 171.543 265.516C173.246 275.527 175.76 285.383 179.06 294.987C179.303 295.733 179.561 296.486 179.825 297.224C188.021 320.277 200.426 341.608 216.409 360.133C222.775 367.498 229.693 374.368 237.102 380.684C247.335 389.406 259.124 398.049 265.685 409.31C266.382 410.478 267.007 411.687 267.555 412.931L239.691 476.496C239.555 476.608 239.433 476.728 239.297 476.841L238.301 479.43C237.896 479.131 237.482 478.812 237.077 478.513C236.842 478.341 236.612 478.154 236.377 477.982C236.222 477.862 236.067 477.742 235.92 477.643C235.868 477.603 235.817 477.563 235.779 477.53C235.633 477.431 235.507 477.323 235.375 477.231C233.058 475.455 230.751 473.659 228.451 471.845C228.437 471.838 228.437 471.838 228.428 471.818C210.944 457.946 194.464 442.492 180.854 425.029C180.445 424.503 180.021 423.972 179.624 423.417C173.533 415.512 168.098 407.121 163.374 398.33C160.802 393.508 158.477 388.559 156.406 383.501C151.08 370.424 147.844 356.59 146.817 342.507C144.774 314.432 151.733 286.016 169.766 264.875C170.228 264.335 170.684 263.808 171.16 263.273Z" fill="#E6E6E6"/>
<path d="M171.903 263.772C164.314 298.18 167.759 334.105 181.75 366.443C184.79 373.353 188.474 380.098 193.532 385.752C198.504 391.224 204.851 395.266 211.913 397.456C218.457 399.631 225.402 401.097 231.304 404.825C237.524 408.754 241.241 415.099 242.516 422.266C244.076 431.034 242.393 439.841 240.447 448.396C238.287 457.894 235.892 467.725 238.16 477.437C238.434 478.614 236.592 478.971 236.318 477.796C232.373 460.9 241.845 444.727 241.225 427.862C240.935 419.993 238.272 412.163 231.71 407.369C225.972 403.176 218.811 401.658 212.166 399.513C205.189 397.261 198.969 393.985 193.767 388.738C188.445 383.371 184.489 376.756 181.286 369.954C174.138 354.476 169.469 337.97 167.448 321.041C165.035 301.733 165.942 282.154 170.131 263.152C170.391 261.976 172.161 262.603 171.903 263.772Z" fill="white"/>
<path d="M176.633 356.296C170.889 357.907 164.759 357.423 159.338 354.932C153.918 352.44 149.559 348.103 147.041 342.694C146.535 341.598 148.215 340.761 148.721 341.858C151.057 346.899 155.117 350.939 160.17 353.249C165.222 355.559 170.934 355.986 176.274 354.455C177.435 354.123 177.788 355.966 176.633 356.296Z" fill="white"/>
<path d="M208.451 396.791C214.52 386.213 216.38 373.736 213.659 361.848C213.389 360.67 215.231 360.313 215.501 361.489C218.309 373.865 216.347 386.846 210.007 397.839C209.402 398.887 207.849 397.833 208.451 396.791Z" fill="white"/>
<path d="M167.424 302.432C169.776 302.272 172.052 301.53 174.047 300.273C176.042 299.016 177.693 297.283 178.853 295.23C179.445 294.175 180.997 295.23 180.409 296.278C179.117 298.54 177.291 300.452 175.09 301.846C172.889 303.239 170.38 304.073 167.783 304.273C167.54 304.313 167.291 304.258 167.086 304.121C166.882 303.983 166.737 303.773 166.683 303.532C166.636 303.288 166.688 303.036 166.827 302.83C166.966 302.624 167.18 302.481 167.424 302.432Z" fill="white"/>
<path d="M266 88.9982L313 639.19L219 646.258V95.9982C230.201 88.5865 246.28 87.4269 266 88.9982Z" fill="#CCCCCC"/>
<path d="M498 88.9982L451 639.19L545 646.258V95.9982C533.799 88.5865 517.72 87.4269 498 88.9982Z" fill="#CCCCCC"/>
<path d="M530.925 669H232.075C227.283 668.994 222.688 667.088 219.3 663.7C215.911 660.311 214.005 655.717 214 650.925V104.075C214.005 99.2827 215.912 94.6885 219.3 91.3C222.688 87.9115 227.283 86.0055 232.075 86H530.925C535.717 86.0055 540.312 87.9115 543.7 91.3C547.088 94.6885 548.995 99.2827 549 104.075V650.925C548.995 655.717 547.089 660.311 543.7 663.7C540.312 667.088 535.717 668.994 530.925 669ZM232.075 92C228.873 92.0035 225.804 93.2768 223.541 95.5405C221.277 97.8042 220.004 100.873 220 104.075V650.925C220.004 654.126 221.277 657.195 223.54 659.459C225.804 661.723 228.873 662.996 232.075 663H530.925C534.127 662.996 537.196 661.723 539.46 659.459C541.723 657.195 542.996 654.126 543 650.925V104.075C542.996 100.873 541.723 97.8042 539.459 95.5405C537.196 93.2768 534.127 92.0036 530.925 92L232.075 92Z" fill="#CCCCCC"/>
<path d="M546 177H217V183H546V177Z" fill="#CCCCCC"/>
<path d="M546 277H217V283H546V277Z" fill="#CCCCCC"/>
<path d="M323.764 89H317.764V362H323.764V89Z" fill="#CCCCCC"/>
<path d="M445.236 89H439.236V362H445.236V89Z" fill="#CCCCCC"/>
<path d="M583.5 685.5H189.5C182.339 685.5 175.472 682.655 170.408 677.592C165.345 672.528 162.5 665.661 162.5 658.5C162.5 651.339 165.345 644.472 170.408 639.408C175.472 634.345 182.339 631.5 189.5 631.5H583.5C590.661 631.5 597.528 634.345 602.592 639.408C607.655 644.472 610.5 651.339 610.5 658.5C610.5 665.661 607.655 672.528 602.592 677.592C597.528 682.655 590.661 685.5 583.5 685.5Z" fill="#CCCCCC"/>
<path d="M546 348H219V368H546V348Z" fill="#CCCCCC"/>
<path d="M324.694 411.651L324.279 411.451C301.988 400.682 272.796 400.692 229.626 411.486L229.165 411.601L229.027 411.146C224.46 396.172 219.287 379.212 229.005 370.868C229.142 346.382 250.62 326.5 277.001 326.5C303.377 326.5 324.852 346.372 324.996 370.851C339.454 381.905 332.564 398.239 324.928 411.253L324.694 411.651Z" fill="#2F2E41"/>
<path d="M461.707 359.221C461.307 361.205 460.477 363.077 459.276 364.706C458.074 366.335 456.53 367.68 454.752 368.648C452.974 369.615 451.006 370.181 448.986 370.305C446.966 370.43 444.943 370.11 443.06 369.368L364.282 448.533L357.254 423.952L435.495 350.436C436.951 347.356 439.486 344.916 442.621 343.58C445.755 342.243 449.271 342.103 452.502 343.186C455.733 344.269 458.455 346.499 460.151 349.455C461.848 352.41 462.401 355.885 461.707 359.221Z" fill="#FFB6B6"/>
<path d="M267.009 435.432C267.009 435.432 259.861 451.629 277.497 461.617C295.133 471.606 356.77 457.806 366.771 455.879C376.772 453.952 414.126 398.052 414.126 398.052L408.844 370.637L359.304 413.642L267.009 435.432Z" fill="#1BB042"/>
<path d="M254 525.001L255 544.001C255 544.001 252.048 560.832 254.476 564.464C256.885 568.077 322.626 568.534 322.626 568.534C322.626 568.534 326.97 545.117 330.711 524.621L254 525.001Z" fill="#FFB6B6"/>
<path d="M443.013 776.22L456.757 773.444L452.823 717.93L432.539 722.027L443.013 776.22Z" fill="#FFB6B6"/>
<path d="M462.701 703.978L475.478 698.233L458.903 645.117L440.045 653.597L462.701 703.978Z" fill="#FFB6B6"/>
<path d="M473.831 674.051L449.773 687.673L390.441 592.331C348.789 620.392 308.059 633.83 267 641.001C253.118 643.473 238.965 642.22 236.299 628.091C236.175 627.431 236.076 626.766 236.001 626.099C234.362 610.665 253.56 590.884 256 572.001L308.541 568.847L315.02 577.154L375.781 539.798C388 532.286 404.072 536.349 411.677 548.874C412.079 549.535 412.452 550.213 412.796 550.907L473.831 674.051Z" fill="#2F2E41"/>
<path d="M459.106 738.188L431.578 740.747L381.665 638.666C332.169 647.178 285.475 649.905 245.086 639.608C231.411 636.169 223.052 622.049 226.416 608.07C226.573 607.417 226.755 606.77 226.961 606.13C231.795 591.382 244.448 580.947 254.417 564.727L327.234 565.833L319.101 593.895L389.837 584.741C404.062 582.901 417.054 593.197 418.855 607.74C418.95 608.507 419.012 609.278 419.041 610.053L459.106 738.188Z" fill="#2F2E41"/>
<path d="M282.433 397.139C298.763 397.139 312.001 383.902 312.001 367.572C312.001 351.242 298.763 338.004 282.433 338.004C266.103 338.004 252.865 351.242 252.865 367.572C252.865 383.902 266.103 397.139 282.433 397.139Z" fill="#FFB6B6"/>
<path d="M265.097 407.812L292.208 411.002C293.351 411.137 294.424 411.624 295.277 412.397C296.13 413.171 296.721 414.191 296.966 415.315L301.278 435.044L328.154 466.695C328.154 466.695 337.806 484.791 334.186 505.299C330.567 525.808 328.977 541.047 328.977 541.047C328.977 541.047 256.881 568.079 254.468 564.46C252.055 560.84 251.272 544.401 251.272 544.401L241.621 437.032C241.621 437.032 252.479 418.936 258.511 418.936C262.404 418.805 261.904 410.043 265.097 407.812Z" fill="#1BB042"/>
<path d="M329.71 547.646C333.512 547.646 336.594 543.948 336.594 539.386C336.594 534.823 333.512 531.125 329.71 531.125C325.908 531.125 322.826 534.823 322.826 539.386C322.826 543.948 325.908 547.646 329.71 547.646Z" fill="#1BB042"/>
<path d="M436.193 761.927L457.147 751.426L461.096 760.639L487.593 765.995C488.901 766.259 490.091 766.935 490.989 767.924C491.886 768.912 492.444 770.162 492.581 771.49C492.718 772.818 492.427 774.155 491.75 775.306C491.073 776.457 490.046 777.361 488.819 777.887L463.218 788.861L454.899 781.639L457.083 791.491L447.43 795.629L436.193 761.927Z" fill="#2F2E41"/>
<path d="M456.705 699.559L477.471 688.691L481.581 697.834L508.168 702.723C509.481 702.964 510.683 703.619 511.597 704.592C512.512 705.564 513.092 706.804 513.252 708.129C513.413 709.455 513.145 710.797 512.489 711.959C511.832 713.122 510.821 714.044 509.604 714.592L484.2 726.014L475.755 718.94L478.111 728.752L468.533 733.059L456.705 699.559Z" fill="#2F2E41"/>
<path d="M265.539 358.295C257.727 358.308 250.103 355.903 243.713 351.41L243.5 351.26V351C243.509 343.444 246.514 336.2 251.857 330.857C257.2 325.514 264.444 322.509 272 322.5H284C291.556 322.509 298.8 325.514 304.143 330.857C309.486 336.2 312.491 343.444 312.5 351C312.492 352.729 311.809 354.387 310.597 355.621C309.385 356.854 307.739 357.566 306.01 357.604L266.213 358.29C265.989 358.293 265.763 358.295 265.539 358.295Z" fill="#2F2E41"/>
<path d="M314.5 345.525C318.327 343.316 318.966 337.26 315.929 331.999C312.891 326.738 307.327 324.264 303.5 326.473C299.674 328.682 299.035 334.738 302.072 339.999C305.11 345.26 310.674 347.734 314.5 345.525Z" fill="#2F2E41"/>
<path d="M254.656 339.657C258.952 335.361 259.902 329.346 256.778 326.222C253.653 323.097 247.638 324.047 243.343 328.343C239.047 332.639 238.097 338.654 241.221 341.778C244.346 344.902 250.361 343.952 254.656 339.657Z" fill="#2F2E41"/>
<path d="M516.338 610H486.825C486.159 609.998 485.501 610.142 484.897 610.422C484.293 610.701 483.757 611.109 483.327 611.617C482.238 611.417 481.118 611.478 480.057 611.795C478.997 612.112 478.027 612.676 477.226 613.441C476.426 614.205 475.819 615.149 475.454 616.194C475.089 617.239 474.977 618.355 475.127 619.452C475.278 620.548 475.686 621.593 476.318 622.502C476.951 623.41 477.79 624.155 478.766 624.676C479.743 625.197 480.829 625.479 481.936 625.499C483.042 625.519 484.138 625.276 485.132 624.79L487.58 632.745C487.87 633.687 488.455 634.512 489.248 635.098C490.041 635.684 491.001 636 491.988 636H511.176C512.162 636 513.122 635.684 513.915 635.098C514.709 634.512 515.293 633.687 515.583 632.745L520.746 615.968C520.958 615.278 521.005 614.548 520.884 613.837C520.762 613.125 520.476 612.452 520.047 611.872C519.618 611.291 519.059 610.82 518.415 610.495C517.771 610.169 517.059 610 516.338 610ZM482.081 623.5C480.755 623.5 479.484 622.973 478.546 622.036C477.608 621.098 477.081 619.826 477.081 618.5C477.081 617.174 477.608 615.902 478.546 614.964C479.484 614.027 480.755 613.5 482.081 613.5C482.173 613.5 482.258 613.522 482.348 613.527C482.149 614.332 482.173 615.176 482.418 615.968L484.53 622.832C483.786 623.265 482.942 623.495 482.081 623.5Z" fill="#3F3D56"/>
<path d="M384.552 588.293C382.537 588.48 380.505 588.222 378.6 587.538C376.695 586.855 374.963 585.762 373.526 584.336C372.09 582.911 370.983 581.187 370.284 579.288C369.585 577.388 369.311 575.359 369.482 573.342L271.043 520.59L292.574 506.805L385.447 560.663C388.816 561.174 391.88 562.903 394.06 565.522C396.239 568.142 397.382 571.47 397.272 574.876C397.162 578.281 395.806 581.528 393.462 584.001C391.117 586.474 387.947 588.001 384.552 588.293Z" fill="#FFB6B6"/>
<path d="M255.683 423.647C255.683 423.647 238.117 421.448 233.608 441.208C229.1 460.968 260.004 516.054 264.719 525.082C269.435 534.109 333.702 553.854 333.702 553.854L358.449 540.928L303.039 505.81L255.683 423.647Z" fill="#1BB042"/>
<path d="M379.5 342H385.5C388.417 342 391.215 343.159 393.278 345.222C395.341 347.285 396.5 350.083 396.5 353H368.5C368.5 350.083 369.659 347.285 371.722 345.222C373.785 343.159 376.583 342 379.5 342Z" fill="#CCCCCC"/>
<path d="M189.241 136.767C222.07 136.767 248.683 110.154 248.683 77.3247C248.683 44.4958 222.07 17.8828 189.241 17.8828C156.412 17.8828 129.799 44.4958 129.799 77.3247C129.799 110.154 156.412 136.767 189.241 136.767Z" fill="#F97825"/>
<path d="M371.239 74.2268C355.508 57.7243 337.238 42.6697 315.609 34.7143C309.584 32.4889 303.338 30.9191 296.977 30.032C296.925 30.025 296.877 30.0354 296.826 30.0313C296.723 30.0046 296.618 29.984 296.512 29.9696C287.615 28.8362 278.585 29.3814 269.89 31.5768C265.637 32.6439 261.489 34.089 257.494 35.895C253.485 37.8508 249.601 40.0522 245.863 42.4867C237.951 47.2225 229.24 50.4721 220.16 52.0753C215.602 52.8958 210.986 53.3489 206.356 53.4301C202.338 53.5107 198.549 53.6503 194.742 55.1018C190.676 56.6309 187.024 59.0892 184.076 62.2806C181.129 65.472 178.968 69.3081 177.767 73.4828C177.674 73.8546 177.702 74.2462 177.846 74.601C177.991 74.9559 178.244 75.2557 178.57 75.4572C179.6 76.1947 180.603 77.0314 181.685 77.6884C182.648 78.1289 183.676 78.4093 184.728 78.5184C186.449 78.8814 188.171 79.2337 189.895 79.5754C196.248 80.8342 202.627 81.9484 209.033 82.9181C221.994 84.8802 235.026 86.2624 248.127 87.0645C274.373 88.6543 300.709 87.8628 326.812 84.6997C341.482 82.9228 356.053 80.4026 370.467 77.1489C370.759 77.0636 371.024 76.9043 371.236 76.6865C371.448 76.4687 371.601 76.1997 371.678 75.9057C371.756 75.6117 371.756 75.3027 371.679 75.0085C371.602 74.7143 371.451 74.4451 371.239 74.2268Z" fill="#E6E6E6"/>
<path d="M192.062 113.968C186.038 111.743 179.791 110.173 173.43 109.286C173.379 109.279 173.33 109.289 173.279 109.285C173.176 109.259 173.071 109.238 172.965 109.223C164.068 108.09 155.038 108.635 146.343 110.831C142.09 111.898 137.942 113.343 133.947 115.149C129.938 117.105 126.054 119.306 122.316 121.741C114.404 126.476 105.694 129.726 96.6133 131.329C92.0555 132.15 87.4391 132.603 82.8088 132.684C78.791 132.765 75.0021 132.904 71.1955 134.356C67.1292 135.885 63.4767 138.343 60.5293 141.534C57.5819 144.726 55.4212 148.562 54.2196 152.737C54.127 153.108 54.1549 153.5 54.2993 153.855C54.4437 154.21 54.6972 154.51 55.0231 154.711C56.0528 155.448 57.0566 156.285 58.1385 156.942C59.1009 157.383 60.1288 157.663 61.1816 157.772C62.9017 158.135 64.6239 158.488 66.3483 158.829C72.7011 160.088 79.0803 161.202 85.4858 162.172C98.4473 164.134 111.479 165.516 124.58 166.318C150.826 167.908 177.162 167.117 203.265 163.953C217.935 162.177 232.506 159.656 246.92 156.403C247.212 156.317 247.477 156.158 247.689 155.94C247.901 155.722 248.054 155.454 248.131 155.16C248.209 154.866 248.209 154.557 248.132 154.262C248.055 153.968 247.904 153.699 247.692 153.481C231.961 136.978 213.691 121.924 192.062 113.968Z" fill="#E6E6E6"/>
<path d="M620.723 557.098L575.011 497.047L538.943 517.441L615.374 608.203L620.723 557.098Z" fill="#3F3D56"/>
<path d="M726.02 459.481C727.035 484.647 730.934 509.613 737.64 533.891C736.2 537.281 734.713 540.647 733.18 543.991C727.377 556.653 720.881 568.985 713.72 580.931C693.636 614.478 668.566 644.774 639.37 670.781C636.21 673.591 633.006 676.354 629.76 679.071C611.25 653.551 601.26 625.391 597.31 596.411C596.81 592.731 596.4 589.011 596.09 585.311V585.291C595.331 576.299 595.087 567.271 595.36 558.251C595.37 557.531 595.39 556.801 595.42 556.071C595.77 546.431 596.64 536.771 597.95 527.201V527.191C598.1 526.091 598.25 524.991 598.42 523.891C598.9 520.591 599.44 517.291 600.03 514.011C603.463 495.094 608.256 476.449 614.37 458.221V458.211C614.54 457.681 614.71 457.161 614.9 456.641C615.56 454.661 616.23 452.701 616.92 450.741C616.963 450.587 617.016 450.437 617.08 450.291C617.97 447.731 618.88 445.191 619.81 442.671C620.06 441.971 620.32 441.271 620.59 440.571C621.64 437.761 622.71 434.971 623.8 432.221C624.14 431.341 624.49 430.461 624.84 429.591C625.11 428.921 625.37 428.251 625.65 427.591V427.581C627.24 423.651 628.85 419.797 630.48 416.021C635.05 405.401 639.75 395.411 644.33 386.201L644.34 386.191C663.35 348.061 680.63 323.301 680.63 323.301L745.52 344.301C737.78 358.031 731.79 378.281 728.51 402.171C725.983 421.159 725.149 440.335 726.02 459.471L726.02 459.481Z" fill="#3F3D56"/>
<path d="M618.17 453.371C617.79 452.481 617.36 451.611 616.92 450.741C614.639 446.324 611.703 442.279 608.21 438.741C607.69 438.211 607.15 437.681 606.59 437.181C600.567 431.633 593.242 427.693 585.293 425.725C577.344 423.757 569.027 423.824 561.11 425.921L561.07 425.941L560.77 426.021L560.84 426.361C561.14 427.945 561.575 429.501 562.14 431.011C562.29 431.421 562.46 431.811 562.63 432.201C562.7 432.381 562.79 432.541 562.87 432.721C562.87 432.721 562.86 432.731 562.88 432.731C562.88 432.741 562.89 432.751 562.89 432.761C563.08 433.131 563.26 433.511 563.46 433.871C563.05 433.481 562.66 433.081 562.28 432.671C561.91 432.291 561.57 431.891 561.23 431.491C560.065 430.132 559.011 428.68 558.08 427.151L557.92 426.881L557.64 426.991C553.867 428.299 550.267 430.062 546.92 432.241L546.56 432.481C544.005 434.159 541.126 435.28 538.109 435.773C535.093 436.265 532.006 436.118 529.05 435.341C524.39 434.139 519.531 433.92 514.781 434.696C510.032 435.473 505.495 437.228 501.46 439.851C498.788 441.594 496.371 443.701 494.28 446.111C494.1 446.321 493.92 446.541 493.74 446.751C493.36 447.211 493 447.681 492.65 448.161C488.891 453.185 486.584 459.145 485.98 465.391L485.96 465.621L486.15 465.751C489.534 468.07 493.361 469.664 497.39 470.431C494.859 470.785 492.296 470.848 489.75 470.621H489.74C488.586 470.526 487.437 470.365 486.3 470.141L486.09 470.101H486.08L485.82 470.051L485.86 470.531C486.159 476.641 488.082 482.561 491.43 487.681L491.53 487.821C491.567 487.872 491.601 487.926 491.63 487.981C493.049 490.151 494.229 492.468 495.15 494.891C497.488 500.913 498.003 507.489 496.63 513.801C495.077 520.552 495.593 527.615 498.112 534.068C500.631 540.522 505.035 546.067 510.75 549.981C515.771 553.435 521.622 555.489 527.7 555.931C528.53 556.001 529.37 556.041 530.21 556.041C535.019 556.056 539.778 555.065 544.18 553.131L544.34 553.071L544.38 552.891C545.227 550.159 546.416 547.544 547.92 545.111C547.428 547.029 547.179 549.001 547.18 550.981V551.641L547.75 551.311C548.24 551.021 548.74 550.711 549.19 550.421C551.892 548.657 554.338 546.531 556.46 544.101C557.29 543.141 558.13 542.211 559.01 541.281L559.02 541.271C560.73 539.451 562.54 537.671 564.42 535.971C568.42 532.379 572.7 529.112 577.22 526.201C581.737 523.301 586.46 520.734 591.35 518.521H591.36C591.91 518.261 592.47 518.011 593.02 517.771C595.456 516.711 597.8 515.453 600.03 514.011C600.11 513.961 600.18 513.921 600.25 513.871C609.917 507.542 617.024 497.987 620.306 486.908C623.587 475.829 622.831 463.944 618.17 453.371Z" fill="#1BB042"/>
<path opacity="0.15" d="M498.278 527.998C498.005 529.214 497.798 530.444 497.659 531.682C495.797 525.798 495.527 519.527 496.877 513.505C497.085 512.584 497.241 511.652 497.363 510.715C499.211 516.29 499.527 522.259 498.278 527.998Z" fill="black"/>
<path opacity="0.15" d="M499.034 484.619C496.072 485.031 493.068 485.045 490.102 484.662C489.325 483.197 488.655 481.678 488.096 480.117C491.398 482.346 495.12 483.878 499.034 484.619Z" fill="black"/>
<path opacity="0.15" d="M489.864 470.298C488.771 473.094 488.044 476.02 487.703 479.003C486.79 476.162 486.252 473.214 486.101 470.234L486.076 469.754L486.548 469.845C487.645 470.051 488.752 470.202 489.864 470.298Z" fill="black"/>
<path opacity="0.15" d="M501.718 439.554C505.749 436.927 510.282 435.169 515.03 434.392C519.777 433.614 524.635 433.835 529.293 435.038C532.25 435.82 535.338 435.97 538.357 435.478C541.376 434.986 544.257 433.863 546.812 432.183L547.173 431.945C550.517 429.76 554.115 427.993 557.888 426.683L558.176 426.583L558.333 426.843C559.825 429.309 561.632 431.57 563.709 433.569C562.447 431.218 561.564 428.684 561.091 426.058L561.023 425.712L561.364 425.622C568.789 423.657 576.573 423.475 584.081 425.091C591.59 426.707 598.61 430.075 604.568 434.921C610.527 439.767 615.256 445.952 618.369 452.974C621.482 459.995 622.891 467.652 622.48 475.322C620.906 469.069 618.106 463.191 614.242 458.029C610.379 452.866 605.53 448.522 599.976 445.247C594.422 441.972 588.273 439.832 581.885 438.951C575.498 438.07 568.999 438.466 562.766 440.114L562.424 440.205L562.492 440.551C562.965 443.176 563.849 445.711 565.11 448.061C563.033 446.063 561.226 443.802 559.734 441.336L559.577 441.076L559.289 441.175C555.516 442.486 551.918 444.253 548.575 446.438L548.214 446.676C545.658 448.356 542.777 449.479 539.758 449.971C536.739 450.463 533.651 450.313 530.694 449.531C522.953 447.522 514.754 448.261 507.496 451.621C500.239 454.981 494.371 460.755 490.894 467.958C489.347 467.214 487.846 466.375 486.401 465.447L486.205 465.323L486.228 465.093C486.726 459.946 488.377 454.977 491.059 450.555C493.74 446.134 497.384 442.374 501.718 439.554Z" fill="black"/>
<path d="M873.48 184.039L872.53 183.409L871.84 184.309C866.5 191.032 862.251 198.554 859.25 206.599C859.664 197.331 861.284 188.157 864.07 179.309L864.37 178.379L863.51 177.889C852.321 171.553 840.399 166.61 828.01 163.169L826.66 162.809C817.164 160.203 808.325 155.626 800.718 149.374C793.11 143.123 786.906 135.339 782.51 126.529C772.293 106.309 756.153 89.6864 736.243 78.8784C716.333 68.0704 693.601 63.5912 671.08 66.0386H671.07C670.83 66.0586 670.58 66.0886 670.34 66.1186C669.93 66.1586 669.53 66.2086 669.13 66.2586C668.31 66.3686 667.51 66.4786 666.71 66.5986C666.03 66.6986 665.34 66.8086 664.66 66.9286C664.3 66.9786 663.95 67.0386 663.6 67.1086C663.25 67.1686 662.89 67.2286 662.54 67.2986H662.53C655.815 68.5686 649.234 70.4601 642.87 72.9486H642.86V72.9586L641.25 73.5886C639.59 74.2686 637.943 74.9886 636.31 75.7486C635.94 75.9186 635.58 76.0985 635.21 76.2685C635.11 76.3185 635 76.3686 634.9 76.4286C633.85 76.9286 632.81 77.4486 631.78 77.9986C631.63 78.0686 631.48 78.1486 631.33 78.2286L630.37 78.7386C628.26 79.8786 626.186 81.0886 624.15 82.3686C623.98 82.4686 623.82 82.5686 623.65 82.6786C623.47 82.7986 623.28 82.9186 623.1 83.0386C622.99 83.0986 622.88 83.1786 622.77 83.2486C622.46 83.4386 622.16 83.6386 621.86 83.8486C621.26 84.2386 620.66 84.6385 620.07 85.0485C619.46 85.4585 618.86 85.8886 618.26 86.3186L617.66 86.7486L617.77 87.4886C617.87 88.0986 617.96 88.7086 618.07 89.3086C618.17 89.9086 618.27 90.4986 618.38 91.0886C618.55 92.0786 618.74 93.0586 618.93 94.0086C619.06 94.6386 619.18 95.2586 619.32 95.8686C619.45 96.4986 619.59 97.1286 619.74 97.7586C620.03 99.0586 620.34 100.319 620.67 101.559C620.83 102.179 621 102.799 621.18 103.409C621.28 103.779 621.38 104.149 621.49 104.509C621.57 104.759 621.65 105.009 621.73 105.259C621.75 105.339 621.77 105.429 621.8 105.519C621.822 105.603 621.849 105.687 621.88 105.769C621.99 106.139 622.1 106.499 622.21 106.849C622.27 107.039 622.33 107.229 622.4 107.409C622.54 107.839 622.69 108.279 622.84 108.699C623 109.179 623.17 109.659 623.34 110.129C623.38 110.249 623.42 110.359 623.46 110.479C623.49 110.569 623.52 110.659 623.56 110.749C623.6 110.849 623.64 110.959 623.68 111.059C623.85 111.509 624.02 111.969 624.2 112.419C624.26 112.579 624.32 112.749 624.39 112.909C626.011 116.982 628.002 120.899 630.34 124.609C627.75 122.389 625.256 120.035 622.86 117.549C619.159 113.704 615.75 109.589 612.66 105.239C612.41 104.899 612.16 104.549 611.93 104.199C611.46 103.529 611 102.859 610.55 102.179C610.07 101.479 609.61 100.749 609.16 100.029C608.86 99.5486 608.56 99.0585 608.27 98.5785C607.98 98.1185 607.71 97.6686 607.45 97.2086L606.67 95.8686H606.66V95.8785L605.56 96.9585C605.12 97.3886 604.68 97.8186 604.25 98.2485C590.809 111.772 581.074 128.525 575.98 146.899L575.83 147.449L575.68 148.019C575.39 149.039 575.1 150.029 574.79 151.039V151.049C574.49 152.049 574.17 153.048 573.83 154.028C573.52 154.958 573.2 155.879 572.86 156.799C572.75 157.109 572.63 157.419 572.5 157.729C572.29 158.329 572.06 158.919 571.83 159.519C571.72 159.789 571.61 160.069 571.5 160.339C571.23 160.999 570.96 161.658 570.69 162.308C570.65 162.408 570.6 162.519 570.55 162.619C570.47 162.819 570.38 163.019 570.3 163.209C570.09 163.689 569.87 164.179 569.66 164.659C569.51 164.969 569.37 165.289 569.23 165.599C569.17 165.739 569.1 165.879 569.04 166.019C568.67 166.819 568.29 167.608 567.89 168.389C567.44 169.309 566.98 170.229 566.49 171.129C566.06 171.969 565.61 172.789 565.14 173.609C564.33 175.059 563.48 176.499 562.6 177.899C562.26 178.439 561.92 178.979 561.57 179.519C561.49 179.649 561.41 179.779 561.33 179.899C561.04 180.369 560.74 180.819 560.43 181.279C560.22 181.589 560.01 181.899 559.8 182.199C559.45 182.739 559.08 183.259 558.7 183.769C558.6 183.929 558.49 184.079 558.38 184.229C557.82 185.009 557.26 185.769 556.69 186.529C556.67 186.539 556.67 186.549 556.66 186.559C556.64 186.559 556.64 186.569 556.63 186.579C556.38 186.909 556.13 187.239 555.87 187.559C555.53 188.029 555.16 188.489 554.79 188.939C554.19 189.699 553.56 190.469 552.92 191.219C552.9 191.239 552.89 191.259 552.87 191.269C549.556 195.162 545.967 198.811 542.13 202.189C542.06 202.249 542.01 202.309 541.94 202.359C541.4 202.829 540.86 203.299 540.3 203.759C540.07 203.949 539.84 204.139 539.61 204.329C539.23 204.649 538.84 204.969 538.46 205.259C538.415 205.304 538.364 205.345 538.31 205.379C537.97 205.659 537.64 205.919 537.3 206.179C536.89 206.509 536.48 206.819 536.06 207.129C534.08 208.629 532.046 210.045 529.96 211.379C529.65 211.589 529.32 211.799 529 211.999C528.81 212.119 528.62 212.239 528.44 212.339C527.68 212.809 526.92 213.269 526.16 213.709C525.4 214.159 524.62 214.589 523.85 215.009C522.2 215.909 520.57 216.849 518.98 217.829C518.18 218.329 517.38 218.829 516.59 219.339C513.45 221.379 510.426 223.562 507.52 225.889C504.614 228.217 501.827 230.69 499.17 233.299C498.84 233.619 498.51 233.949 498.18 234.289C497.52 234.939 496.88 235.599 496.27 236.259C495.29 237.269 494.35 238.309 493.42 239.359C488.516 244.923 484.175 250.959 480.46 257.379C478.594 260.584 476.899 263.885 475.38 267.269C474.23 269.799 473.18 272.389 472.23 275.009C471.6 276.759 471.01 278.525 470.46 280.309C470.19 281.199 469.93 282.099 469.68 282.999C468.83 286.049 468.12 289.129 467.54 292.219C467.07 294.699 466.69 297.182 466.4 299.669C466.25 300.919 466.13 302.169 466.02 303.409C465.762 306.456 465.631 309.507 465.625 312.561C465.607 321.722 466.721 330.85 468.94 339.739C469.43 341.699 469.973 343.649 470.57 345.589C470.87 346.559 471.19 347.519 471.51 348.479C472.32 350.879 473.216 353.255 474.2 355.609C474.79 357.019 475.41 358.419 476.06 359.809C480.191 368.645 485.462 376.902 491.74 384.369C492.77 385.599 493.833 386.809 494.93 387.999C494.94 387.999 494.93 388.009 494.93 388.009C497.651 390.976 500.532 393.794 503.56 396.449H503.57C504.78 397.518 506.01 398.555 507.26 399.559C507.27 399.549 507.27 399.559 507.27 399.559C508.53 400.579 509.8 401.559 511.1 402.509C511.75 402.979 512.41 403.449 513.08 403.919C514.39 404.849 515.726 405.745 517.09 406.609H517.1C518.46 407.489 519.84 408.329 521.24 409.129C524.05 410.739 526.93 412.249 529.89 413.619L530.39 413.849L530.9 413.619C535.646 411.483 540.538 409.688 545.54 408.249C546.64 407.929 547.75 407.639 548.85 407.359C551.63 406.669 554.43 406.089 557.25 405.619C554.502 406.997 551.85 408.557 549.31 410.289C547.34 411.619 545.4 413.069 543.45 414.669C542.8 415.199 542.15 415.749 541.5 416.309L539.88 417.709L541.91 418.379C542.65 418.619 543.39 418.859 544.13 419.079C545.14 419.399 546.14 419.689 547.12 419.959C549.26 420.559 551.413 421.089 553.58 421.549C554.11 421.659 554.63 421.769 555.16 421.879C556.19 422.079 557.23 422.279 558.27 422.459C558.312 422.469 558.356 422.476 558.4 422.479C559.48 422.659 560.57 422.829 561.65 422.979C563.66 423.269 565.67 423.499 567.68 423.669C567.9 423.699 568.12 423.709 568.35 423.719C568.84 423.759 569.32 423.799 569.81 423.829C570.89 423.899 571.98 423.949 573.07 423.989C573.15 423.989 573.22 423.999 573.3 423.999C573.85 424.019 574.4 424.039 574.95 424.049C574.95 424.049 574.95 424.059 574.96 424.049C575.51 424.059 576.06 424.069 576.61 424.069H579.65C580.22 424.069 580.79 424.079 581.37 424.079C582.17 424.079 582.98 424.089 583.78 424.099C583.99 424.099 584.21 424.109 584.43 424.109C585.71 424.129 586.99 424.159 588.27 424.189C588.35 424.189 588.43 424.199 588.51 424.199C589.79 424.239 591.07 424.279 592.35 424.339C592.63 424.349 592.91 424.359 593.2 424.379C594.43 424.429 595.66 424.489 596.89 424.559C597.24 424.579 597.6 424.609 597.96 424.629C598.89 424.679 599.83 424.739 600.76 424.809C601.31 424.839 601.85 424.879 602.4 424.929C604.62 425.099 606.83 425.289 609.05 425.509C609.79 425.569 610.53 425.648 611.27 425.729C613.25 425.939 615.236 426.169 617.23 426.419C618.12 426.519 619.01 426.639 619.9 426.759C620 426.769 620.1 426.779 620.2 426.799C621.3 426.949 622.39 427.099 623.49 427.259C624.21 427.359 624.93 427.469 625.65 427.579C626.39 427.689 627.13 427.799 627.87 427.929C628.27 427.989 628.67 428.059 629.08 428.129C630.04 428.279 631.01 428.439 631.98 428.619C632.067 428.627 632.154 428.64 632.24 428.659C634.3 429.019 636.37 429.399 638.43 429.809C639.64 430.039 640.84 430.279 642.04 430.529C642.98 430.719 643.92 430.919 644.86 431.119C645.02 431.149 645.18 431.189 645.34 431.229C645.376 431.239 645.413 431.246 645.45 431.249C646.87 431.559 648.3 431.879 649.72 432.219C654.65 433.359 659.573 434.625 664.49 436.019C665.62 436.329 666.75 436.659 667.88 436.989C668.36 437.129 668.83 437.269 669.3 437.409C670.28 437.699 671.25 437.989 672.23 438.299C673.09 438.559 673.96 438.829 674.82 439.109C675.36 439.279 675.9 439.449 676.44 439.629C677.28 439.889 678.12 440.159 678.95 440.449C679.66 440.669 680.36 440.899 681.06 441.149C682.06 441.479 683.07 441.819 684.07 442.179C684.36 442.279 684.66 442.379 684.95 442.489C686.17 442.909 687.39 443.339 688.61 443.789C689.8 444.219 690.99 444.659 692.17 445.099C692.99 445.409 693.81 445.709 694.62 446.029C695.53 446.379 696.44 446.729 697.34 447.089C698.64 447.599 699.95 448.119 701.25 448.649C702.45 449.129 703.64 449.619 704.84 450.129C705.06 450.219 705.29 450.309 705.51 450.409C706.55 450.839 707.59 451.289 708.62 451.739C709.29 452.019 709.95 452.309 710.61 452.599C713.49 453.859 716.366 455.162 719.24 456.509H719.25C721.05 457.359 722.88 458.169 724.72 458.939C725.15 459.119 725.58 459.299 726.02 459.469C726.75 459.779 727.49 460.069 728.23 460.369C728.71 460.559 729.19 460.749 729.68 460.929C730.39 461.209 731.11 461.479 731.83 461.739C732.59 462.019 733.34 462.299 734.11 462.559C734.38 462.659 734.65 462.749 734.93 462.849C735.82 463.149 736.71 463.449 737.61 463.739C737.7 463.769 737.79 463.799 737.89 463.829C738.83 464.129 739.77 464.429 740.72 464.709C740.795 464.736 740.872 464.76 740.95 464.779C741.97 465.089 743.01 465.389 744.04 465.679C745.56 466.099 747.09 466.499 748.62 466.869C748.9 466.939 749.18 467.009 749.46 467.069C750.28 467.269 751.09 467.458 751.91 467.639C752.78 467.838 753.66 468.018 754.53 468.199C755.41 468.379 756.29 468.559 757.16 468.719C757.63 468.809 758.1 468.899 758.56 468.979L759.79 469.189C760.64 469.339 761.49 469.469 762.35 469.609C762.374 469.608 762.397 469.611 762.42 469.619C763.39 469.769 764.35 469.909 765.32 470.029C766.25 470.159 767.18 470.269 768.11 470.379C768.3 470.399 768.5 470.419 768.7 470.439C769.47 470.529 770.24 470.619 771.01 470.689C771.23 470.709 771.45 470.729 771.67 470.749C772.43 470.819 773.19 470.889 773.95 470.939C774.102 470.959 774.256 470.969 774.41 470.969C775.09 471.029 775.77 471.079 776.45 471.109C776.93 471.149 777.4 471.169 777.88 471.199C778.13 471.209 778.37 471.219 778.62 471.229C779.28 471.269 779.94 471.289 780.61 471.309C781.42 471.339 782.23 471.359 783.03 471.379C784 471.399 784.98 471.409 785.95 471.409H785.97C786.92 471.409 787.88 471.399 788.83 471.379H789.19L790.24 471.349C790.78 471.339 791.32 471.319 791.85 471.299C792.87 471.259 793.88 471.209 794.89 471.149C795.29 471.129 795.7 471.099 796.1 471.079C796.28 471.069 796.47 471.049 796.65 471.039C797.28 470.999 797.9 470.959 798.53 470.909C799.18 470.859 799.84 470.799 800.49 470.729C801.33 470.649 802.17 470.559 803.01 470.469C803.67 470.399 804.33 470.319 804.98 470.239C805.067 470.231 805.154 470.217 805.24 470.199C805.87 470.129 806.5 470.049 807.12 469.959C807.86 469.859 808.59 469.749 809.32 469.639C809.4 469.629 809.47 469.619 809.55 469.609C810.81 469.409 812.08 469.209 813.35 468.979C814.68 468.739 816.01 468.479 817.33 468.209C817.82 468.109 818.3 467.999 818.79 467.899C819.06 467.839 819.34 467.789 819.6 467.729C820.01 467.639 820.41 467.549 820.81 467.449C820.88 467.439 820.96 467.419 821.03 467.409C821.59 467.289 822.14 467.149 822.7 467.009C823.82 466.739 824.92 466.459 826.02 466.159C826.51 466.039 827 465.909 827.47 465.779C827.61 465.739 827.75 465.699 827.88 465.659C829.91 465.089 831.923 464.485 833.92 463.849C834.8 463.569 835.67 463.279 836.54 462.969C838.41 462.329 840.263 461.655 842.1 460.949C842.59 460.769 843.08 460.569 843.57 460.379C844.29 460.089 845.01 459.799 845.72 459.509C846.36 459.239 847 458.969 847.65 458.689C847.97 458.559 848.29 458.419 848.61 458.279C849.57 457.859 850.53 457.429 851.48 456.999C852.12 456.699 852.75 456.409 853.38 456.109C854.38 455.629 855.37 455.139 856.36 454.649C856.61 454.519 856.85 454.389 857.09 454.269C857.72 453.949 858.35 453.619 858.99 453.299C860 452.759 861.01 452.219 862.01 451.659C862.35 451.479 862.68 451.289 863.02 451.099C864.12 450.479 865.21 449.849 866.29 449.209C868.68 447.779 871.037 446.285 873.36 444.729C873.94 444.349 874.52 443.949 875.09 443.559C876.17 442.819 877.23 442.059 878.29 441.299C878.4 441.219 878.5 441.139 878.61 441.069C879.14 440.679 879.67 440.289 880.2 439.889C881.3 439.059 882.39 438.219 883.48 437.359C883.5 437.349 883.53 437.319 883.56 437.299C884.05 436.909 884.54 436.519 885.02 436.129C886.51 434.919 887.98 433.689 889.42 432.419C890.13 431.809 890.83 431.179 891.52 430.549C892.04 430.079 892.56 429.609 893.07 429.129C894.1 428.159 895.11 427.199 896.11 426.219C896.61 425.739 897.1 425.239 897.6 424.739C898.09 424.239 898.59 423.739 899.08 423.229C899.25 423.059 899.42 422.879 899.59 422.699C900.09 422.169 900.59 421.629 901.09 421.099C901.52 420.639 901.94 420.159 902.37 419.679C903.09 418.879 903.82 418.079 904.53 417.269C904.567 417.223 904.608 417.18 904.65 417.139C904.69 417.089 904.73 417.049 904.76 417.009H904.75C919.285 400.2 930.085 380.496 936.435 359.201C942.785 337.906 944.54 315.505 941.584 293.481C938.628 271.457 931.028 250.312 919.287 231.445C907.547 212.578 891.933 196.419 873.48 184.039Z" fill="#1BB042"/>
<g opacity="0.15">
<path d="M671.072 66.0312C673.066 73.1917 676.065 80.0331 679.98 86.3511C673.426 80.7208 667.57 74.3255 662.537 67.3019C665.364 66.7672 668.209 66.3437 671.072 66.0312Z" fill="black"/>
<path d="M573.494 176.766C566.092 180.806 559.172 185.67 552.865 191.267C563.514 178.674 571.297 163.917 575.674 148.017C575.727 147.826 575.78 147.634 575.832 147.443L575.981 146.901C581.241 127.925 591.447 110.686 605.555 96.9479L606.664 95.8672L607.446 97.2027C611.771 104.557 616.946 111.376 622.866 117.519C613.795 143.113 596.146 164.414 573.494 176.766Z" fill="black"/>
<path d="M625.622 108.654L625.473 109.195C625.422 109.386 625.368 109.579 625.315 109.77C625.023 110.822 624.713 111.866 624.392 112.906C621.229 104.713 619.007 96.1858 617.771 87.4902L617.654 86.7523L618.261 86.3187C625.87 80.8508 634.135 76.358 642.862 72.9453C635.027 83.7218 629.188 95.8161 625.622 108.654Z" fill="black"/>
<path d="M523.853 215.018C530.403 211.433 536.534 207.13 542.132 202.188C530.95 215.206 522.935 230.637 518.714 247.272C514.493 263.906 514.182 281.292 517.804 298.066C521.427 314.841 528.884 330.55 539.592 343.96C550.301 357.371 563.969 368.12 579.526 375.365L580.032 375.598L580.537 375.37C588.94 371.574 597.799 368.883 606.895 367.366C601.218 370.258 595.926 373.85 591.144 378.06L589.526 379.458L591.555 380.128C593.307 380.708 595.06 381.241 596.763 381.714C606.771 384.501 617.117 385.886 627.506 385.827C674.708 385.525 722.276 396.437 768.888 418.261C776.882 421.998 785.173 425.062 793.676 427.422C830.731 437.739 870.289 434.028 904.779 416.999C885.334 439.488 859.908 455.998 831.455 464.614C803.002 473.23 772.688 473.597 744.035 465.672C735.532 463.313 727.24 460.248 719.247 456.511C672.634 434.687 625.066 423.775 577.865 424.077C567.476 424.136 557.13 422.751 547.122 419.964C545.418 419.491 543.666 418.958 541.914 418.379L539.884 417.708L541.502 416.31C546.285 412.1 551.576 408.508 557.253 405.616C548.158 407.133 539.298 409.824 530.895 413.62L530.391 413.848L529.885 413.615C511.203 404.919 495.304 391.203 483.964 373.997C472.623 356.791 466.286 336.773 465.661 316.175C465.035 295.578 470.145 275.212 480.421 257.35C490.696 239.487 505.733 224.832 523.853 215.018Z" fill="black"/>
</g>
</g>
<defs>
<clipPath id="clip0_202_2">
<rect width="943.001" height="795.629" fill="white"/>
</clipPath>
</defs>
</svg>
